/* XPM */
static char * coin_xpm[] = {
"32 32 56 1",
" 	c #222222",
".	c #2F2A29",
"+	c #413635",
"@	c #483B3A",
"#	c #262424",
"$	c #2C2828",
"%	c #362F2E",
"&	c #433736",
"*	c #352E2C",
"=	c #403432",
"-	c #443734",
";	c #3B3231",
">	c #463A39",
",	c #4D3E3C",
"'	c #614C47",
")	c #69524C",
"!	c #574542",
"~	c #6E554F",
"{	c #775C55",
"]	c #C27633",
"^	c #F1AA79",
"/	c #FAE7D7",
"(	c #CEC8C0",
"_	c #764F38",
":	c #A26536",
"<	c #D79235",
"[	c #F4B768",
"}	c #FADDB2",
"|	c #E0D0B6",
"1	c #ACA59F",
"2	c #7C7470",
"3	c #534340",
"4	c #66504B",
"5	c #A36536",
"6	c #EA8C2F",
"7	c #F3B438",
"8	c #FACA42",
"9	c #FACC4D",
"0	c #F9DEA5",
"a	c #F8F2E9",
"b	c #ADA7A0",
"c	c #4C3E3C",
"d	c #A66736",
"e	c #EE8E2E",
"f	c #F5B638",
"g	c #FACB3E",
"h	c #FBDEA3",
"i	c #FDF7ED",
"j	c #B0A9A3",
"k	c #493B38",
"l	c #53423F",
"m	c #604C47",
"n	c #705751",
"o	c #6A534D",
"p	c #6D544E",
"q	c #755A54",
"     .++.      .+@@@@+..++.     ",
" #$..%&&%......%&@@@@&%%&&%..*=-",
" $;++&>>&++++++&>@@@@>&&>>&++,')",
".%&@@@@@@@@@@@@@@@@@@@@@@@@@@!~{",
"+&>@@@@@@@@@@@@@@@@@@@@@@@@@@!~{",
"@@@@@@@@@@@@@@@@@@@@@@@@@@@@@!~{",
"@@@@@@@@@@@@@@@@@@@@@@@@@@@@@!~{",
"+&>@@@@@@@@@@@@@@@@@@@@@@@@@@!~{",
".%&@@@@@@@@@@@@@@@@@@@@@@@@@@!~{",
".%&@@@@@@@@@@@@@@@@@@@@@@@@@@!~{",
"+&>@@@@@@@@@@@]^/(@@@@@@@@@@@!~{",
"+&>@@@@@@@@@_:<[}|12@@@@@@@@@34~",
".%&@@@@@@@@@567890ab@@@@@@@@@c3!",
" .+@@@@@@@@@defgghij@@@@@@@@@c3!",
" .+@@@@@@@@@defgghij@@@@@@@@@34~",
" .+@@@@@@@@@defgghij@@@@@@@@@34~",
" .+@@@@@@@@@defgghij@@@@@@@@@c3!",
".%&@@@@@@@@@defgghij@@@@@@@@@c3!",
"+&>@@@@@@@@@defgghij@@@@@@@@@34~",
"@@@@@@@@@@@@567890ab@@@@@@@@@!~{",
"@@@@@@@@@@@@_:<[}|12@@@@@@@@@!~{",
"+&>@@@@@@@@@@@]^/(@@@@@@@@@@@34~",
".%&@@@@@@@@@@@@@@@@@@@@@@@@@@c3!",
" .+@@@@@@@@@@@@@@@@@@@@@@@@@@@@@",
" .+@@@@@@@@@@@@@@@@@@@@@@@@@@@@@",
" .+@@@@@@@@@@@@@@@@@@@@@@@@@@c3!",
" .+@@@@@@@@@@@@@@@@@@@@@@@@@@34~",
" .+@@@@@@@@@@@@@@@@@@@@@@@@@@!~{",
" .+@@@@@@@@@@@@@@@@@@@@@@@@@@!~{",
"-kl!!3c@@c33cc3!!!!!!3cc3!!!!mn{",
")op~~43@@344334~~~~~~4334~~~~nq{",
"{{{{{~!@@!~~!!~{{{{{{~!!~{{{{{{{"};
