/* XPM */
static char * evil_3_xpm[] = {
"32 32 48 1",
" 	c #222222",
".	c #212222",
"+	c #302A2A",
"@	c #413635",
"#	c #403535",
"$	c #252424",
"%	c #2C2828",
"&	c #2F2A29",
"*	c #2F2A2A",
"=	c #9F294E",
"-	c #DA4E38",
";	c #423736",
">	c #433736",
",	c #372F2F",
"'	c #362E2D",
")	c #403532",
"!	c #453835",
"~	c #3A3131",
"{	c #403635",
"]	c #463A39",
"^	c #FDF7ED",
"/	c #4D3E3C",
"(	c #604B46",
"_	c #69514C",
":	c #483B3A",
"<	c #473B3A",
"[	c #574542",
"}	c #6D554F",
"|	c #775C55",
"1	c #584643",
"2	c #6E554F",
"3	c #785C55",
"4	c #574642",
"5	c #534340",
"6	c #654F4A",
"7	c #4C3E3C",
"8	c #544340",
"9	c #202121",
"0	c #2E2929",
"a	c #403534",
"b	c #473A39",
"c	c #4A3C39",
"d	c #53423F",
"e	c #614C48",
"f	c #705751",
"g	c #6A524C",
"h	c #6C544E",
"i	c #755A53",
"   . +@@+            # +#@+ .   ",
".$%&*      == --==--=   ;>,*&')!",
" %~{@>]  = -= --^^--^ =  ]>#{/(_",
"*,>::::: =--- --^^--^ -  ::<:[}|",
"@>]::::   ==- --  --  -  ::::123",
":::::::  ==--=       =- :::<:[}|",
":::::     =  - = = = -  :::<:[}|",
"#;]:::::      ^ ^ ^ ^ ^  ::<:[}|",
"*,>::::::       ^   ^   :::<:[}|",
"+,>::::::              ::::<:4}|",
"#;]:::::: :            ::::<:[}|",
"@>]:::::: : :          ::::<:56}",
"+,>:::::: : :        : ::::::78[",
" *@:::::::: ::     : ::::::::/81",
".&{:::::: : :::   :::::::::<:56}",
".&{:::::::: :::: ::::: ::::<:56}",
" *@:::::: : :::   :: : ::::::/81",
"*,>:: ::: : :        : ::::::78[",
"@>]::   :              ::::<:56}",
"::::::                  :::<:4}|",
":::::::        ^     ^    :<:4}|",
"@>]:  :      ^ ^ ^ ^ ^ ^  :<:86}",
"*,>::     = = - - - - =  ::::78[",
" *@:::  = -------------= :::::<<",
".&{:::: ====------------ :::::<<",
" *@::::  ==----=--------  :::78[",
" *@:    ==========--==--  :<:86}",
"90a<:   ================ <<b<[}|",
" *@::: ====         === :::<:4}|",
"!cd448     5/75[4[[4 == 5[4[[ef|",
"_gh}}68<<866886}}}}}} = 6}}}}fi|",
"|||||}[<<1}}1[}|||||| = }|||||||"};
