/* XPM */
static char * evil_xpm[] = {
"32 32 47 1",
" 	c #222222",
".	c #2C2827",
"+	c #433736",
"@	c #483B3A",
"#	c #242323",
"$	c #2A2727",
"%	c #2C2828",
"&	c #332D2C",
"*	c #443837",
"=	c #332C2C",
"-	c #2B2827",
";	c #302B2A",
">	c #3A312F",
",	c #3E3331",
"'	c #2A2626",
")	c #3D3333",
"!	c #433737",
"~	c #473A39",
"{	c #403635",
"]	c #4D3E3C",
"^	c #664F4A",
"/	c #6D554F",
"(	c #342D2C",
"_	c #473B3A",
":	c #554441",
"<	c #715751",
"[	c #775C55",
"}	c #534340",
"|	c #705751",
"1	c #DA4E38",
"2	c #9F294E",
"3	c #FDF7ED",
"4	c #544340",
"5	c #51413F",
"6	c #69524D",
"7	c #4A3D3B",
"8	c #403535",
"9	c #534240",
"0	c #3D3330",
"a	c #443735",
"b	c #51413E",
"c	c #5C4945",
"d	c #725852",
"e	c #6D554E",
"f	c #6E554F",
"g	c #6F5650",
"h	c #765B54",
"     .++.      .+@@@@+..++.     ",
" #$%.&**&.%%%%.&*@@@@*==**&.-;>,",
" ')!+*~~*++++++*~@@@@~**~~*+{]^/",
".(*@@@@@@@@@@@@@@ @@@@@@@@@@_:<[",
"+*~@@@@@@@@@@@ @ @@@@ @@@@@@@}|[",
"@@@@@@@@@@@@@  @ @ @ @@@@@@@@}|[",
"@@@@@@@@             @ @@@@@@}|[",
"+*~@@@@@@     1122112   @@@@@}|[",
".=*@@@    2 2 1133113 2  @@@@}|[",
".=*@@   2 112 1133113 12  @@@}|[",
"+*~@    21111 11  11  11  @@@4|[",
"+*~@ @@  22112       211  @@@56|",
".&*@@@  2211112222222111 @@@@754",
" .+@@@   2 1 1 1 1 1 1   @@@@754",
" %+@@         3 3 3 3 3  @@@@56|",
" %+@  @@@       3   3   @@@@@56|",
" .+@@@@@@ @            @@@@@@754",
".&*@@@@@@@@@         @ @@@@@@754",
"+*~@@@@@@ @           @@@@@@@56|",
"@@@@@   @               @@@@@4|[",
"@@@@@@@        3     3    @@@4|[",
"+*~@@@       3 3 3 3 3 3  @@@56|",
".&*@      2 2 1 1 1 1 2  @@@@754",
" .+@@@@ 2 11111111111112 @@@@@@@",
" %+@@@@ 2222111111111111 @@@@@@@",
" %+@@@@  221111211111111 @@@@754",
" %+@@@  2222222222112211  @@@56|",
" %+@    2222222222222222  @@@4|[",
" $8_@@ 222222      2222  @@@@9|[",
"0ab:45 222   754}}} 2222  }}9cd[",
"efg||6 2  66556|||||   22 |||dh[",
"[[[[[|   4||44|[[[[[[|4  [[[[[[["};
