/* XPM */
static char * wall_right_xpm[] = {
"32 32 61 1",
" 	c #775C55",
".	c #785C55",
"+	c #68514B",
"@	c #453835",
"#	c #69514C",
"$	c #222222",
"%	c #6D554F",
"&	c #6E554F",
"*	c #604B46",
"=	c #403532",
"-	c #604C47",
";	c #574542",
">	c #584643",
",	c #4D3E3B",
"'	c #362E2D",
")	c #4D3E3C",
"!	c #483B3A",
"~	c #493B3A",
"{	c #403635",
"]	c #2F2A2A",
"^	c #463A39",
"/	c #433736",
"(	c #473A39",
"_	c #3A3131",
":	c #2C2828",
"<	c #473B3A",
"[	c #403534",
"}	c #423636",
"|	c #362F2E",
"1	c #423736",
"2	c #2B2827",
"3	c #252424",
"4	c #3F3534",
"5	c #403535",
"6	c #3A3130",
"7	c #2B2727",
"8	c #2A2727",
"9	c #393030",
"0	c #393130",
"a	c #202121",
"b	c #212121",
"c	c #262424",
"d	c #463935",
"e	c #3E3331",
"f	c #2E2928",
"g	c #3E3431",
"h	c #3F3431",
"i	c #69514B",
"j	c #5C4843",
"k	c #69524C",
"l	c #5C4943",
"m	c #614C47",
"n	c #463936",
"o	c #52423F",
"p	c #483A39",
"q	c #4E3E3C",
"r	c #4E3F3C",
"s	c #433737",
"t	c #413635",
"u	c #2D2828",
"v	c #212222",
" . +@@+ .      . +@@+ .    . #@$",
"%&%*==*%&%%%%%%&%*==*%&%%%%&%-=$",
";>;,'',;>;;;;;;>;,'',;>;;;;>;)'$",
"!~!{]]{!~^//^!!~!{]]{!~!!!!(/_:$",
"<!<[]][!!}||}<!!<[]][<!<<!<1|23$",
"45{67895{67894[[49889[{{[[408ab$",
"]]]:cc:]]:33:]]]]:cc:]]]]]]:3$$$",
"deffeddgffgddddddddddgffgddddhf$",
"ijeejkkjeejikiiiiiikijeejikkile$",
"%mnnm&&*==*%&%%%%%%&%*==*%&&%*=$",
">oppo>>q''q>>>>>>>>>>q''q>>>>r'$",
"!!!!!~!{]]{!~!!!!!!~!{]]{^ss^t]$",
"<!!!!!<[]][<!<<<<<<!<[]][}||}5]$",
"44444[498894[[{{[44[498799726_u$",
"]]]]]]]:cc:]]]]]]]]]]:cc::cc::c$",
"dddddddddddddgffgddddddddddhf$v$",
"iiiiiiiiiiikijeejikiiiiiikije$a$",
"%%%%%%%%%%%&%*==*%&%%%%%%&%*=$a$",
">>>>>>>>>>>>>q''q>>>>>>>>>>r'$b$",
"!!!!!^//^!!~!{]]{!~!!!!!!~!t]$v$",
"<<<!<}||}<!!<[]][<!<<<<<<!<5]$v$",
"4445{67894[[498894[[{{[44[408ab$",
"]]]]]:33:]]]]:cc:]]]]]]]]]]:c$$$",
"dddgffgddddddddddddgffgddddddhf$",
"ikijeejikiiiiiiiikijeejikiikile$",
"%&%*==*%&%%%%%%%%&%*==*%&%%&%*=$",
">>>q''q>>>>>>>>>>>>q''q>>>>>>r'$",
"!~!{]]{!~!!!!^//^~!{]]{^s/^~!t]$",
"<!<[]][<!<<!<}||}!![]][}||}!!5]$",
"ttt_::_tttttt_::_tt_:u__u:_tt_:$",
"]]]:cc:]]]]]]:33:]]:cc::c3:]]:c$",
"$$$$$$$$$$$$$$$$$$$$$$$$$$$$$$$$"};
