/* XPM */
static char * big_demon_idle_anim_f3_xpm[] = {
"28 32 219 2",
"  	c None",
". 	c #222222",
"+ 	c #1D2222",
"@ 	c #1E2221",
"# 	c #192122",
"$ 	c #1A2221",
"% 	c #1B2122",
"& 	c #763129",
"* 	c #83332A",
"= 	c #60132B",
"- 	c #681D2B",
"; 	c #85352A",
"> 	c #73262B",
", 	c #4C1628",
"' 	c #002021",
") 	c #C44734",
"! 	c #DB5745",
"~ 	c #D1AAA9",
"{ 	c #D39E9B",
"] 	c #DC492F",
"^ 	c #D88B85",
"/ 	c #847070",
"( 	c #012021",
"_ 	c #C24634",
": 	c #DC6251",
"< 	c #FDF4EA",
"[ 	c #F7E0D6",
"} 	c #D93E1F",
"| 	c #F0C1B6",
"1 	c #A3A29B",
"2 	c #DC6150",
"3 	c #FBF2E8",
"4 	c #F6DED4",
"5 	c #D93F20",
"6 	c #EFBFB5",
"7 	c #A2A09A",
"8 	c #112122",
"9 	c #C34734",
"0 	c #DC604F",
"a 	c #F6ECE2",
"b 	c #F1D9CF",
"c 	c #D94021",
"d 	c #EBBBB0",
"e 	c #9E9D96",
"f 	c #282223",
"g 	c #42232A",
"h 	c #382227",
"i 	c #432623",
"j 	c #472528",
"k 	c #BA4333",
"l 	c #CA4A37",
"m 	c #574945",
"n 	c #7A4943",
"o 	c #D14A35",
"p 	c #9F4A3F",
"q 	c #403436",
"r 	c #43222A",
"s 	c #272223",
"t 	c #232222",
"u 	c #4C232D",
"v 	c #48242A",
"w 	c #AC334A",
"x 	c #983140",
"y 	c #AE412F",
"z 	c #C03F44",
"A 	c #712837",
"B 	c #552430",
"C 	c #51232F",
"D 	c #52232F",
"E 	c #562430",
"F 	c #50232F",
"G 	c #942E42",
"H 	c #AD334A",
"I 	c #632633",
"J 	c #262223",
"K 	c #962949",
"L 	c #95392E",
"M 	c #DB4E37",
"N 	c #DB4F38",
"O 	c #DA4E38",
"P 	c #DB4E38",
"Q 	c #BF3E45",
"R 	c #B53848",
"S 	c #B43748",
"T 	c #CE473E",
"U 	c #BA3B46",
"V 	c #AB3645",
"W 	c #262222",
"X 	c #242222",
"Y 	c #79273C",
"Z 	c #C24043",
"` 	c #CB453F",
" .	c #DB4F37",
"..	c #CF4B35",
"+.	c #282322",
"@.	c #77263D",
"#.	c #A22C4C",
"$.	c #C44144",
"%.	c #CC4640",
"&.	c #DC4E38",
"*.	c #DC4F38",
"=.	c #D04B36",
"-.	c #292322",
";.	c #632435",
">.	c #9A2B4A",
",.	c #AC4030",
"'.	c #B64332",
").	c #9E3728",
"!.	c #CF4A35",
"~.	c #973526",
"{.	c #CA4834",
"].	c #A93B2B",
"^.	c #B6402E",
"/.	c #C14431",
"(.	c #9D3728",
"_.	c #843429",
":.	c #7D3329",
"<.	c #252222",
"[.	c #492724",
"}.	c #522925",
"|.	c #571F19",
"1.	c #CFC6BD",
"2.	c #8D6D67",
"3.	c #D5CEC5",
"4.	c #967C75",
"5.	c #C3B7AF",
"6.	c #B6A79F",
"7.	c #A6928B",
"8.	c #CEC5BC",
"9.	c #5B5B58",
"0.	c #1F2020",
"a.	c #5B5955",
"b.	c #615F5C",
"c.	c #E4DED5",
"d.	c #3F3E3C",
"e.	c #4E4C4A",
"f.	c #BAB5AE",
"g.	c #A8A49E",
"h.	c #5D5B57",
"i.	c #31302F",
"j.	c #1F1F1F",
"k.	c #555350",
"l.	c #5A5855",
"m.	c #434240",
"n.	c #52504D",
"o.	c #D0CBC3",
"p.	c #85827D",
"q.	c #5D5B58",
"r.	c #292929",
"s.	c #202222",
"t.	c #1F2222",
"u.	c #2B2224",
"v.	c #43232B",
"w.	c #310517",
"x.	c #C0B9B2",
"y.	c #977C75",
"z.	c #A5908A",
"A.	c #B5A59E",
"B.	c #C4B9B1",
"C.	c #897A78",
"D.	c #D2CCC4",
"E.	c #41413E",
"F.	c #582431",
"G.	c #5F2434",
"H.	c #4D2629",
"I.	c #B63848",
"J.	c #A6373F",
"K.	c #A0373B",
"L.	c #963133",
"M.	c #CA4833",
"N.	c #AA3C2B",
"O.	c #AA3541",
"P.	c #6C1D33",
"Q.	c #5F2335",
"R.	c #562331",
"S.	c #902848",
"T.	c #9F294E",
"U.	c #812A3C",
"V.	c #C44142",
"W.	c #C44143",
"X.	c #D0483E",
"Y.	c #C13F44",
"Z.	c #BD3D46",
"`.	c #A83840",
" +	c #152121",
".+	c #622435",
"++	c #9A294C",
"@+	c #A0294F",
"#+	c #9D284E",
"$+	c #AC324B",
"%+	c #D0483D",
"&+	c #C34733",
"*+	c #0C2121",
"=+	c #1D2221",
"-+	c #78263D",
";+	c #9C294D",
">+	c #A72F4C",
",+	c #B43848",
"'+	c #A22B4D",
")+	c #B33748",
"!+	c #BE3E45",
"~+	c #DC4F37",
"{+	c #C94440",
"]+	c #D34A3C",
"^+	c #122122",
"/+	c #1B2221",
"(+	c #8E2746",
"_+	c #9E294E",
":+	c #A12B4D",
"<+	c #A62E4C",
"[+	c #9E284E",
"}+	c #AA314B",
"|+	c #9A3043",
"1+	c #162221",
"2+	c #212222",
"3+	c #3C2328",
"4+	c #4B232D",
"5+	c #6F253A",
"6+	c #41232A",
"                                                        ",
"                                                        ",
"                                                        ",
"                                                        ",
"                                                        ",
"                                                        ",
"                                                        ",
"                            .                           ",
"                        .   .                           ",
"                      . +   @   # $                     ",
"                      % & * = - ; > ,                   ",
"                      ' ) ! ~ { ] ^ /                   ",
"                      ( _ : < [ } | 1                   ",
"                .     ( _ 2 3 4 5 6 7                   ",
"        . .     . .   ( _ 2 3 4 5 6 7     .             ",
"          . .   . . . 8 9 0 a b c d e   . .             ",
"          . . f g h i j k l m n o p q r s .             ",
"          t u v w x y z A B C D E F G H I F   .         ",
"      . . J K L M N O P Q R R R R S T P U V W .         ",
"        . X Y Z Z ` O O P  . . . . .O O P ..+..         ",
"        . X @.#.$.%.N P P O &.O P P P P *.=.-.          ",
"        . t ;.>.; ,.'._ ).!.~.{.].^./.(._.:.<.          ",
"          . X u % [.}.|.1.2.3.4.5.6.7.8.9.+ .           ",
"        .     . . . . 0.a.b.c.d.e.f.g.h.i..             ",
"        . . . . . . j.k.d.c.b.l.m.n.o.p.q.r.            ",
"        . s.t.u.C v.w.x.y.3.2.8.z.A.B.C.D.E.t.  .       ",
"      . s.F.G.H.I.J.K.L.M.~.!.)./.^.N.O.P.Q.R.s..       ",
"        $ S.T.U.V.W.X.*.O *.O P P P P P Y.Z.`. +        ",
"        @ .+++@+#+$+%+ .P Z O P O O  .O P  .&+*+.       ",
"      . =+-+;+T.T.>+R ,+,+'+)+!+~+{+)+]+P P 9 ^+.       ",
"      . /+(+_+T.T.T.T._+_+_+_+:+H <+[+}+H H |+1+        ",
"        2+3+4+;+T.T.@+5+6+g g 6+5+@+T.T.;+4+3+2+        "};
