/* XPM */
static char * test_xpm[] = {
"32 32 332 2",
"  	c None",
". 	c #222222",
"+ 	c #262222",
"@ 	c #312423",
"# 	c #2C2122",
"$ 	c #352323",
"% 	c #2E2322",
"& 	c #2F2222",
"* 	c #4A2724",
"= 	c #7E332A",
"- 	c #893730",
"; 	c #713840",
"> 	c #753A41",
", 	c #853732",
"' 	c #833733",
") 	c #6C3237",
"! 	c #522934",
"~ 	c #702F27",
"{ 	c #C34835",
"] 	c #D46458",
"^ 	c #D0A4A1",
"/ 	c #D0A29E",
"( 	c #D46C61",
"_ 	c #D67369",
": 	c #B6827E",
"< 	c #827170",
"[ 	c #722F27",
"} 	c #C64A38",
"| 	c #DE7D70",
"1 	c #F6E3D9",
"2 	c #F5DFD5",
"3 	c #E28A7E",
"4 	c #E69489",
"5 	c #D0B2A9",
"6 	c #9F9E97",
"7 	c #C64A37",
"8 	c #DF7E71",
"9 	c #F7E6DC",
"0 	c #F7E2D8",
"a 	c #E28B7F",
"b 	c #E6968B",
"c 	c #D2B4AB",
"d 	c #A1A09A",
"e 	c #DF7D70",
"f 	c #F7E5DB",
"g 	c #F6E1D7",
"h 	c #E6968A",
"i 	c #D1B3AB",
"j 	c #A09F99",
"k 	c #262223",
"l 	c #252223",
"m 	c #0D2122",
"n 	c #743028",
"o 	c #DC786B",
"p 	c #ECD9CF",
"q 	c #EBD5CC",
"r 	c #DE8579",
"s 	c #E18F83",
"t 	c #C9AAA1",
"u 	c #979690",
"v 	c #232222",
"w 	c #282223",
"x 	c #2F2224",
"y 	c #4B242B",
"z 	c #49242B",
"A 	c #4C2726",
"B 	c #512827",
"C 	c #7F312E",
"D 	c #B94334",
"E 	c #BD4D3F",
"F 	c #80615B",
"G 	c #83605B",
"H 	c #B94F42",
"I 	c #B85244",
"J 	c #87524C",
"K 	c #563D40",
"L 	c #4E242D",
"M 	c #312225",
"N 	c #292223",
"O 	c #322225",
"P 	c #51242E",
"Q 	c #59272D",
"R 	c #9D3242",
"S 	c #A13441",
"T 	c #A43B35",
"U 	c #B54038",
"V 	c #AD3A3F",
"W 	c #7F2D37",
"X 	c #702B33",
"Y 	c #622A34",
"Z 	c #6E2A33",
"` 	c #6B2A33",
" .	c #7D2D39",
"..	c #9E3343",
"+.	c #A13243",
"@.	c #6E2835",
"#.	c #5C2531",
"$.	c #202222",
"%.	c #1E2221",
"&.	c #4C232D",
"*.	c #8D2A42",
"=.	c #993834",
"-.	c #CA4838",
";.	c #D64C3A",
">.	c #D64D38",
",.	c #D84D38",
"'.	c #D1493C",
").	c #BB3D43",
"!.	c #B43945",
"~.	c #B33945",
"{.	c #B23845",
"].	c #BD3E42",
"^.	c #D0483C",
"/.	c #B83C43",
"(.	c #A73741",
"_.	c #5A282B",
":.	c #1C2221",
"<.	c #1F2221",
"[.	c #412329",
"}.	c #832A3D",
"|.	c #B73C42",
"1.	c #C34142",
"2.	c #CA4540",
"3.	c #D44B3B",
"4.	c #DA4E38",
"5.	c #D94D39",
"6.	c #D84D39",
"7.	c #D94E38",
"8.	c #D74C39",
"9.	c #C94836",
"0.	c #692E27",
"a.	c #182122",
"b.	c #202221",
"c.	c #3F2329",
"d.	c #7A273D",
"e.	c #A12E49",
"f.	c #BB3D44",
"g.	c #C74440",
"h.	c #D24B3B",
"i.	c #D94E37",
"j.	c #D84D37",
"k.	c #D74D37",
"l.	c #D94D37",
"m.	c #D54D37",
"n.	c #C74834",
"o.	c #362226",
"p.	c #672536",
"q.	c #902A45",
"r.	c #8B3334",
"s.	c #9F3C2F",
"t.	c #B04131",
"u.	c #B94332",
"v.	c #B7493A",
"w.	c #B15145",
"x.	c #C64F3E",
"y.	c #AC5347",
"z.	c #C15040",
"A.	c #B85042",
"B.	c #B55144",
"C.	c #BE5041",
"D.	c #BA5042",
"E.	c #A34E43",
"F.	c #8C3C31",
"G.	c #80342A",
"H.	c #462724",
"I.	c #242222",
"J.	c #342226",
"K.	c #4F232E",
"L.	c #3B2326",
"M.	c #4B2724",
"N.	c #5A2B26",
"O.	c #5D1D16",
"P.	c #8D726C",
"Q.	c #BAAAA2",
"R.	c #9E7F78",
"S.	c #C9BCB4",
"T.	c #A68D86",
"U.	c #AF9B93",
"V.	c #B9A79F",
"W.	c #B09992",
"X.	c #B39E97",
"Y.	c #B4A9A1",
"Z.	c #635B57",
"`.	c #362D2B",
" +	c #252222",
".+	c #272223",
"++	c #282222",
"@+	c #282221",
"#+	c #474340",
"$+	c #6B6763",
"%+	c #88837E",
"&+	c #CEC8C0",
"*+	c #7F7A75",
"=+	c #54504D",
"-+	c #97928C",
";+	c #B2ADA6",
">+	c #9C9792",
",+	c #696662",
"'+	c #3D3C3A",
")+	c #262626",
"!+	c #211D1E",
"~+	c #474442",
"{+	c #585552",
"]+	c #595552",
"^+	c #5E5956",
"/+	c #A19C96",
"(+	c #BAB5AE",
"_+	c #807C78",
":+	c #686561",
"<+	c #383736",
"[+	c #282224",
"}+	c #2A2224",
"|+	c #55252E",
"1+	c #440A1A",
"2+	c #877875",
"3+	c #AD9D97",
"4+	c #A78D86",
"5+	c #AE9992",
"6+	c #A9908A",
"7+	c #BAA8A0",
"8+	c #B3A39D",
"9+	c #9C8B88",
"0+	c #B9B1AA",
"a+	c #5F5A57",
"b+	c #2C2627",
"c+	c #1E2222",
"d+	c #3A2328",
"e+	c #5D2433",
"f+	c #612434",
"g+	c #5C272E",
"h+	c #A33441",
"i+	c #A93741",
"j+	c #A1363B",
"k+	c #9F4141",
"l+	c #AF4D46",
"m+	c #C0503F",
"n+	c #BD4F41",
"o+	c #B65144",
"p+	c #B04D46",
"q+	c #A54349",
"r+	c #82454C",
"s+	c #6C2E3B",
"t+	c #602632",
"u+	c #3D2328",
"v+	c #522430",
"w+	c #8C2846",
"x+	c #97294A",
"y+	c #882B3F",
"z+	c #B53B42",
"A+	c #C03F44",
"B+	c #C74340",
"C+	c #D14A3B",
"D+	c #D64C38",
"E+	c #D94D38",
"F+	c #D24A3B",
"G+	c #BF3F42",
"H+	c #BA3D43",
"I+	c #A9393F",
"J+	c #622A2C",
"K+	c #002020",
"L+	c #75253C",
"M+	c #99294B",
"N+	c #9D294D",
"O+	c #A02B4D",
"P+	c #A9304B",
"Q+	c #C13F44",
"R+	c #D34A3C",
"S+	c #D44A3C",
"T+	c #C64242",
"U+	c #D54B3B",
"V+	c #D94E39",
"W+	c #C54735",
"X+	c #723028",
"Y+	c #002021",
"Z+	c #1B2221",
"`+	c #49232C",
" @	c #802741",
".@	c #9B294C",
"+@	c #9F294E",
"@@	c #A42D4D",
"#@	c #B0354A",
"$@	c #B63947",
"%@	c #B23748",
"&@	c #A82F4B",
"*@	c #B43748",
"=@	c #BD3D45",
"-@	c #D1493D",
";@	c #D0483D",
">@	c #BF3E44",
",@	c #BE3E44",
"'@	c #D2493D",
")@	c #D74C3A",
"!@	c #D64C39",
"~@	c #C44736",
"{@	c #723029",
"]@	c #032021",
"^@	c #182220",
"/@	c #52232F",
"(@	c #8B2745",
"_@	c #99284C",
":@	c #9E294E",
"<@	c #A12A4E",
"[@	c #9F2A4D",
"}@	c #9C2A4C",
"|@	c #9B2A4B",
"1@	c #9A294C",
"2@	c #9E2C4A",
"3@	c #A93348",
"4@	c #AB324A",
"5@	c #A52D4C",
"6@	c #AE334A",
"7@	c #B03549",
"8@	c #AC3547",
"9@	c #9C3241",
"0@	c #5B272D",
"a@	c #302225",
"b@	c #4A232C",
"c@	c #612435",
"d@	c #96284A",
"e@	c #A0294F",
"f@	c #8F2748",
"g@	c #692538",
"h@	c #4F242E",
"i@	c #50242E",
"j@	c #6B2637",
"k@	c #902847",
"l@	c #A1294F",
"m@	c #A02A4E",
"n@	c #98294A",
"o@	c #632534",
"p@	c #4C242C",
"q@	c #312325",
"                                                                ",
"                                                                ",
"                                                                ",
"                                                                ",
"                                                                ",
"                                                                ",
"                                                                ",
"                                .                               ",
"                            .   .                               ",
"                          + @   #   $ % &                       ",
"                          * = - ; > , ' ) !                     ",
"                          ~ { ] ^ / ( _ : <                     ",
"                          [ } | 1 2 3 4 5 6                     ",
"                  .       [ 7 8 9 0 a b c d                     ",
"          . .     . .     [ 7 e f g a h i j     .               ",
"            . .   k l + m n 7 o p q r s t u   v .               ",
"            v w x y z A B C D E F G H I J K L M N               ",
"            O P Q R S T U V W X Y Y Z `  ...+.@.#.  $.          ",
"        . %.&.*.=.-.;.>.,.'.).!.~.~.~.{.].^.'./.(._.:.          ",
"          <.[.}.|.1.2.3.4.4.5.6.6.6.6.6.5.7.4.8.9.0.a.          ",
"          b.c.d.e.f.g.h.i.j.k.7.j.j.j.j.l.j.k.m.n.0.            ",
"          $.o.p.q.r.s.t.u.v.w.x.y.z.A.B.C.D.E.F.G.H.            ",
"            I.J.K.L.M.N.O.P.Q.R.S.T.U.V.W.X.Y.Z.`. +            ",
"          .     .+v  +++@+#+$+%+&+*+=+-+;+>+,+'+)+              ",
"          . . . v .+.+!+~+{+*+&+%+$+]+^+/+(+_+:+<+              ",
"          I.[+}+O |+|+1+2+3+4+S.R.Q.5+6+7+8+9+0+a+b+  . .       ",
"        c+d+e+f+g+h+i+j+k+l+m+y.x.w.D.n+o+p+q+r+s+t+u+c+.       ",
"          v+w+x+y+z+A+B+C+j.,.D+E+k.j.l.j.j.F+G+H+I+J+K+        ",
"          c.L+M+N+O+P+Q+R+5.S+T+U+5.4.7.6.5.V+5.,.W+X+Y+v       ",
"      . Z+`+ @.@+@+@@@#@$@$@%@&@*@=@-@;@>@,@'@)@!@~@{@]@.       ",
"      . ^@/@(@_@:@+@+@<@[@}@|@1@|@2@3@4@5@@@6@7@8@9@0@          ",
"          a@b@c@d@+@+@e@f@g@h@h@h@i@j@k@l@+@m@n@o@p@q@          "};
