/* XPM */
static char * coin_xpm[] = {
"32 32 154 2",
"  	c None",
". 	c #ED8A1D",
"+ 	c #EE9141",
"@ 	c #F09E61",
"# 	c #F2AF84",
"$ 	c #F4C2A4",
"% 	c #F7D4BE",
"& 	c #FAE3D3",
"* 	c #FBEFE3",
"= 	c #FDF5EB",
"- 	c #FDF9F0",
"; 	c #EE8D1F",
"> 	c #EF9441",
", 	c #F0A060",
"' 	c #F2B182",
") 	c #F5C2A1",
"! 	c #F7D4BB",
"~ 	c #FAE3D0",
"{ 	c #FBEDDF",
"] 	c #FDF3E8",
"^ 	c #FDF7ED",
"/ 	c #EF9424",
"( 	c #F09A40",
"_ 	c #F1A45E",
": 	c #F3B37E",
"< 	c #F5C39B",
"[ 	c #F7D3B4",
"} 	c #FAE1C8",
"| 	c #FBEAD6",
"1 	c #FCF0DF",
"2 	c #FDF4E4",
"3 	c #F09A1F",
"4 	c #F09A20",
"5 	c #F19E2A",
"6 	c #F1A440",
"7 	c #F3AC59",
"8 	c #F4B775",
"9 	c #F6C48F",
"0 	c #F8D2A6",
"a 	c #FADDB8",
"b 	c #FBE5C6",
"c 	c #FCEBCF",
"d 	c #FDEED5",
"e 	c #FDF0DA",
"f 	c #FDF1DB",
"g 	c #F0992D",
"h 	c #F19D2B",
"i 	c #F1A22A",
"j 	c #F2A730",
"k 	c #F3AD3E",
"l 	c #F5B451",
"m 	c #F6BD68",
"n 	c #F7C67E",
"o 	c #F8D091",
"p 	c #FAD8A2",
"q 	c #FBDFAF",
"r 	c #FCE4BA",
"s 	c #FCE8C4",
"t 	c #FCECCD",
"u 	c #FCEFD7",
"v 	c #FDF1DD",
"w 	c #EE8E2E",
"x 	c #EF922F",
"y 	c #F09830",
"z 	c #F1A02F",
"A 	c #F3A830",
"B 	c #F4AF34",
"C 	c #F5B63D",
"D 	c #F7BD4A",
"E 	c #F8C259",
"F 	c #F9C868",
"G 	c #F9CE77",
"H 	c #FAD485",
"I 	c #FAD994",
"J 	c #FBDEA3",
"K 	c #FCE3B4",
"L 	c #FCEDD3",
"M 	c #FCF2DF",
"N 	c #FDF5E8",
"O 	c #F09930",
"P 	c #F1A232",
"Q 	c #F3AB34",
"R 	c #F5B537",
"S 	c #F7BD3C",
"T 	c #F8C342",
"U 	c #F9C749",
"V 	c #FACA50",
"W 	c #FACC5A",
"X 	c #FACF67",
"Y 	c #FAD379",
"Z 	c #FBD88E",
"` 	c #FBDFA6",
" .	c #FCE6BD",
"..	c #FCECCF",
"+.	c #FCF1DE",
"@.	c #EE8D2E",
"#.	c #F1A233",
"$.	c #F4AD35",
"%.	c #F6B738",
"&.	c #F8C03B",
"*.	c #F9C63E",
"=.	c #FAC93D",
"-.	c #FACB3C",
";.	c #FACB40",
">.	c #FACD4E",
",.	c #FAD064",
"'.	c #FBD581",
").	c #FBDC9F",
"!.	c #FCE5B9",
"~.	c #FCECCE",
"{.	c #FDF5E7",
"].	c #ED8B2D",
"^.	c #F09931",
"/.	c #F2A333",
"(.	c #F4AE36",
"_.	c #F6B839",
":.	c #F8C13B",
"<.	c #F9C83C",
"[.	c #FACA37",
"}.	c #FACB31",
"|.	c #FACB30",
"1.	c #FACC3F",
"2.	c #FACE5A",
"3.	c #FBD47B",
"4.	c #FBDC9B",
"5.	c #FCE4B7",
"6.	c #FCEBCE",
"7.	c #FDF4E7",
"8.	c #FDF7EE",
"9.	c #F2A334",
"0.	c #F6B939",
"a.	c #F8C23B",
"b.	c #FACB37",
"c.	c #FACB2F",
"d.	c #FACB2E",
"e.	c #FACB3D",
"f.	c #FACE58",
"g.	c #FBD47A",
"h.	c #FDF9F1",
"i.	c #F9C73C",
"j.	c #FACA38",
"k.	c #FACB32",
"l.	c #FACC41",
"m.	c #FACF5A",
"n.	c #FBDC9C",
"o.	c #FCE4B8",
"p.	c #FACA39",
"q.	c #FACB34",
"r.	c #FACB35",
"s.	c #FACC44",
"t.	c #FACF5D",
"u.	c #FBD57C",
"v.	c #F9C73D",
"w.	c #FACB36",
"                      . + @ # $ % & * = -                       ",
"                      ; > , ' ) ! ~ { ] ^                       ",
"                      / ( _ : < [ } | 1 2                       ",
"                  3 4 5 6 7 8 9 0 a b c d e f                   ",
"                g h i j k l m n o p q r s t u v                 ",
"            w x y z A B C D E F G H I J K s L M N ^             ",
"            w x O P Q R S T U V W X Y Z `  ...+.N ^             ",
"            @.x O #.$.%.&.*.=.-.;.>.,.'.).!.~.+.{.^             ",
"          ].@.x ^./.(._.:.<.[.}.|.1.2.3.4.5.6.+.7.8.-           ",
"          ].@.x ^.9.(.0.a.<.b.c.d.e.f.g.4.5.6.+.7.8.h.          ",
"          ].@.x ^.9.(._.:.i.j.k.k.l.m.3.n.o.6.+.7.8.h.          ",
"          ].@.x ^.9.(._.:.i.p.q.r.s.t.u.n.o.6.+.7.8.h.          ",
"          ].@.x ^.9.(._.:.v.p.q.w.s.t.u.n.o.6.+.7.8.h.          ",
"          ].@.x ^.9.(._.:.v.p.q.w.s.t.u.n.o.6.+.7.8.h.          ",
"          ].@.x ^.9.(._.:.v.p.q.w.s.t.u.n.o.6.+.7.8.h.          ",
"          ].@.x ^.9.(._.:.v.p.q.w.s.t.u.n.o.6.+.7.8.h.          ",
"          ].@.x ^.9.(._.:.v.p.q.w.s.t.u.n.o.6.+.7.8.h.          ",
"          ].@.x ^.9.(._.:.v.p.q.w.s.t.u.n.o.6.+.7.8.h.          ",
"          ].@.x ^.9.(._.:.v.p.q.w.s.t.u.n.o.6.+.7.8.h.          ",
"          ].@.x ^.9.(._.:.v.p.q.w.s.t.u.n.o.6.+.7.8.h.          ",
"          ].@.x ^.9.(._.:.i.p.q.r.s.t.u.n.o.6.+.7.8.h.          ",
"          ].@.x ^.9.(._.:.i.j.k.k.l.m.3.n.o.6.+.7.8.h.          ",
"          ].@.x ^.9.(.0.a.<.b.c.d.e.f.g.4.5.6.+.7.8.h.          ",
"          ].@.x ^./.(._.:.<.[.}.|.1.2.3.4.5.6.+.7.8.-           ",
"            @.x O #.$.%.&.*.=.-.;.>.,.'.).!.~.+.{.^             ",
"            w x O P Q R S T U V W X Y Z `  ...+.N ^             ",
"            w x y z A B C D E F G H I J K s L M N ^             ",
"                g h i j k l m n o p q r s t u v                 ",
"                  3 4 5 6 7 8 9 0 a b c d e f                   ",
"                      / ( _ : < [ } | 1 2                       ",
"                      ; > , ' ) ! ~ { ] ^                       ",
"                      . + @ # $ % & * = -                       "};
