/* XPM */
static char * coin_xpm[] = {
"27 32 127 2",
"  	c None",
". 	c #ED880A",
"+ 	c #EE903D",
"@ 	c #F09F64",
"# 	c #F2B58E",
"$ 	c #F6CBB2",
"% 	c #F9DFCE",
"& 	c #FBEEE2",
"* 	c #FDF6EC",
"= 	c #FDFAF2",
"- 	c #EE8B10",
"; 	c #EF933D",
"> 	c #F0A163",
", 	c #F3B68C",
"' 	c #F6CBAF",
") 	c #F9DFCB",
"! 	c #FBEDDF",
"~ 	c #FDF4E9",
"{ 	c #FDF8EE",
"] 	c #EF921A",
"^ 	c #F0993D",
"/ 	c #F1A560",
"( 	c #F3B887",
"_ 	c #F6CBA9",
": 	c #F9DDC3",
"< 	c #FBEAD6",
"[ 	c #FCF1E0",
"} 	c #FDF5E5",
"| 	c #F0991D",
"1 	c #F19C24",
"2 	c #F1A33D",
"3 	c #F3AD5B",
"4 	c #F5BB7D",
"5 	c #F7CB9B",
"6 	c #F9DAB4",
"7 	c #FBE5C5",
"8 	c #FCEBD0",
"9 	c #FDEFD7",
"0 	c #FDF1DC",
"a 	c #F0992D",
"b 	c #F1A029",
"c 	c #F2A62D",
"d 	c #F3AD3C",
"e 	c #F5B553",
"f 	c #F6C06E",
"g 	c #F8CB88",
"h 	c #F9D69D",
"i 	c #FBDEAE",
"j 	c #FCE4BA",
"k 	c #FCE9C6",
"l 	c #FCEDD1",
"m 	c #FDF1DD",
"n 	c #EE8D2E",
"o 	c #EF932F",
"p 	c #F09B30",
"q 	c #F2A42F",
"r 	c #F4AE32",
"s 	c #F5B63C",
"t 	c #F7BE4B",
"u 	c #F8C45D",
"v 	c #F9CB6F",
"w 	c #FAD280",
"x 	c #FAD891",
"y 	c #FBDEA3",
"z 	c #FCE4B7",
"A 	c #FCEACA",
"B 	c #FCF0DB",
"C 	c #FDF5E7",
"D 	c #FDF7EE",
"E 	c #F09C31",
"F 	c #F2A733",
"G 	c #F5B336",
"H 	c #F7BD3B",
"I 	c #F8C443",
"J 	c #F9C84A",
"K 	c #FACB53",
"L 	c #FACE60",
"M 	c #FAD274",
"N 	c #FBD88E",
"O 	c #FBE0AB",
"P 	c #FCE9C5",
"Q 	c #FCF0D9",
"R 	c #FDF4E7",
"S 	c #F3A834",
"T 	c #F5B538",
"U 	c #F8C03B",
"V 	c #F9C73E",
"W 	c #FACA3C",
"X 	c #FACB3B",
"Y 	c #FACC45",
"Z 	c #FACF5E",
"` 	c #FBD581",
" .	c #FBDEA5",
"..	c #FCE8C3",
"+.	c #FCEFD9",
"@.	c #FDF4E6",
"#.	c #ED8B2D",
"$.	c #F09C32",
"%.	c #F3A935",
"&.	c #F5B638",
"*.	c #F8C13B",
"=.	c #F9C93C",
"-.	c #FACB35",
";.	c #FACB2C",
">.	c #FACD52",
",.	c #FBD47B",
"'.	c #FBDEA2",
").	c #FCE7C2",
"!.	c #FDF9F1",
"~.	c #F8C23B",
"{.	c #FACB34",
"].	c #FACB2B",
"^.	c #FACB33",
"/.	c #FACD51",
"(.	c #FBD47A",
"_.	c #F9C83C",
":.	c #FACB36",
"<.	c #FACB2F",
"[.	c #FACB39",
"}.	c #FACE54",
"|.	c #FBD47C",
"1.	c #F9C83D",
"2.	c #FACB37",
"3.	c #FACB32",
"4.	c #FACB3C",
"5.	c #FACE57",
"6.	c #FBD57D",
"                  . + @ # $ % & * =                   ",
"                  - ; > , ' ) ! ~ {                   ",
"                  ] ^ / ( _ : < [ }                   ",
"                | 1 2 3 4 5 6 7 8 9 0                 ",
"              a b c d e f g h i j k l m               ",
"          n o p q r s t u v w x y z A B C D           ",
"          n o E F G H I J K L M N O P Q R D           ",
"          n o E S T U V W X Y Z `  ...+.@.D           ",
"        #.n o $.%.&.*.=.-.;.-.>.,.'.).+.@.D !.        ",
"        #.n o $.%.&.~.=.{.].^./.(.'.).+.@.D !.        ",
"        #.n o $.%.&.*._.:.<.[.}.|.y ).+.@.D !.        ",
"        #.n o $.%.&.*.1.2.3.4.5.6.y ).+.@.D !.        ",
"        #.n o $.%.&.*.1.2.3.4.5.6.y ).+.@.D !.        ",
"        #.n o $.%.&.*.1.2.3.4.5.6.y ).+.@.D !.        ",
"        #.n o $.%.&.*.1.2.3.4.5.6.y ).+.@.D !.        ",
"        #.n o $.%.&.*.1.2.3.4.5.6.y ).+.@.D !.        ",
"        #.n o $.%.&.*.1.2.3.4.5.6.y ).+.@.D !.        ",
"        #.n o $.%.&.*.1.2.3.4.5.6.y ).+.@.D !.        ",
"        #.n o $.%.&.*.1.2.3.4.5.6.y ).+.@.D !.        ",
"        #.n o $.%.&.*.1.2.3.4.5.6.y ).+.@.D !.        ",
"        #.n o $.%.&.*.1.2.3.4.5.6.y ).+.@.D !.        ",
"        #.n o $.%.&.*._.:.<.[.}.|.y ).+.@.D !.        ",
"        #.n o $.%.&.~.=.{.].^./.(.'.).+.@.D !.        ",
"        #.n o $.%.&.*.=.-.;.-.>.,.'.).+.@.D !.        ",
"          n o E S T U V W X Y Z `  ...+.@.D           ",
"          n o E F G H I J K L M N O P Q R D           ",
"          n o p q r s t u v w x y z A B C D           ",
"              a b c d e f g h i j k l m               ",
"                | 1 2 3 4 5 6 7 8 9 0                 ",
"                  ] ^ / ( _ : < [ }                   ",
"                  - ; > , ' ) ! ~ {                   ",
"                  . + @ # $ % & * =                   "};
