/* XPM */
static char * vilain_1_xpm[] = {
"32 32 290 2",
"  	c #222222",
". 	c #212222",
"+ 	c #302A2A",
"@ 	c #413635",
"# 	c #2F2A2A",
"$ 	c #483B3A",
"% 	c #403535",
"& 	c #252424",
"* 	c #2C2828",
"= 	c #2F2A29",
"- 	c #372F2F",
"; 	c #433736",
"> 	c #423736",
", 	c #362E2D",
"' 	c #403532",
") 	c #453835",
"! 	c #3A3131",
"~ 	c #403635",
"{ 	c #463A39",
"] 	c #4D3E3C",
"^ 	c #604B46",
"/ 	c #69514C",
"( 	c #473B3A",
"_ 	c #574542",
": 	c #6D554F",
"< 	c #775C55",
"[ 	c #584643",
"} 	c #6E554F",
"| 	c #785C55",
"1 	c #463939",
"2 	c #323B36",
"3 	c #433839",
"4 	c #453939",
"5 	c #3F7251",
"6 	c #4BA970",
"7 	c #403537",
"8 	c #403436",
"9 	c #433738",
"0 	c #3F3436",
"a 	c #56BC7B",
"b 	c #2D9362",
"c 	c #2C2D34",
"d 	c #2D5945",
"e 	c #4DAE73",
"f 	c #333A35",
"g 	c #309D68",
"h 	c #29976E",
"i 	c #1D7F77",
"j 	c #21947E",
"k 	c #2A634D",
"l 	c #473A3A",
"m 	c #446449",
"n 	c #415D55",
"o 	c #3F6258",
"p 	c #1C887E",
"q 	c #264E51",
"r 	c #574642",
"s 	c #7F7E80",
"t 	c #929194",
"u 	c #625C5F",
"v 	c #625A41",
"w 	c #E4DDA5",
"x 	c #F5EEA9",
"y 	c #EEE485",
"z 	c #8E8952",
"A 	c #584D36",
"B 	c #666264",
"C 	c #929295",
"D 	c #7B7A7C",
"E 	c #817F82",
"F 	c #F6F6F6",
"G 	c #FFFFFF",
"H 	c #E5E5E5",
"I 	c #97905E",
"J 	c #FDFBE8",
"K 	c #FCF9E1",
"L 	c #F7EC8A",
"M 	c #F2E578",
"N 	c #82764B",
"O 	c #E8E8E8",
"P 	c #F4F4F4",
"Q 	c #757477",
"R 	c #534340",
"S 	c #654F4A",
"T 	c #7E7E82",
"U 	c #989263",
"V 	c #F9F1AD",
"W 	c #F7ED91",
"X 	c #E8E7E8",
"Y 	c #737277",
"Z 	c #4C3E3C",
"` 	c #544340",
" .	c #693731",
"..	c #9C827F",
"+.	c #979193",
"@.	c #AB6C5C",
"#.	c #968B56",
"$.	c #F9F0A8",
"%.	c #F5EA85",
"&.	c #E6D24F",
"*.	c #806D31",
"=.	c #AA7061",
"-.	c #979293",
";.	c #9E7F7B",
">.	c #613531",
",.	c #593735",
"'.	c #A94F2F",
").	c #B2532F",
"!.	c #893F30",
"~.	c #928B57",
"{.	c #F7EC89",
"].	c #E4D56B",
"^.	c #C2AD39",
"/.	c #D7C133",
"(.	c #896230",
"_.	c #8E4130",
":.	c #B3532F",
"<.	c #A64E2F",
"[.	c #553736",
"}.	c #7B3E30",
"|.	c #BE5730",
"1.	c #B55330",
"2.	c #D27839",
"3.	c #948241",
"4.	c #E4D256",
"5.	c #95742C",
"6.	c #AF7521",
"7.	c #926830",
"8.	c #D87C3A",
"9.	c #D57839",
"0.	c #B45330",
"a.	c #C05830",
"b.	c #713A31",
"c.	c #403536",
"d.	c #793830",
"e.	c #E1843C",
"f.	c #E58B40",
"g.	c #E68D41",
"h.	c #CC7B3C",
"i.	c #62452F",
"j.	c #D6B128",
"k.	c #C9B232",
"l.	c #9F5332",
"m.	c #E4883F",
"n.	c #E58C40",
"o.	c #E1823C",
"p.	c #6F3631",
"q.	c #403437",
"r.	c #483534",
"s.	c #C0763D",
"t.	c #C4793D",
"u.	c #523732",
"v.	c #443738",
"w.	c #583635",
"x.	c #C46634",
"y.	c #E58A40",
"z.	c #C16433",
"A.	c #8B7531",
"B.	c #AC6031",
"C.	c #E3873E",
"D.	c #C06333",
"E.	c #553636",
"F.	c #453738",
"G.	c #533732",
"H.	c #C6793D",
"I.	c #BF753D",
"J.	c #463434",
"K.	c #6F3932",
"L.	c #D6793A",
"M.	c #E28A40",
"N.	c #A4663A",
"O.	c #9E5635",
"P.	c #9D4A30",
"Q.	c #BA6234",
"R.	c #DE8840",
"S.	c #D77235",
"T.	c #E2863E",
"U.	c #DC8740",
"V.	c #B85F33",
"W.	c #A24C2F",
"X.	c #9A5635",
"Y.	c #AA693B",
"Z.	c #D47739",
"`.	c #683832",
" +	c #3F3437",
".+	c #B35330",
"++	c #E48A40",
"@+	c #D66C33",
"#+	c #B7552F",
"$+	c #CE6833",
"%+	c #DC7838",
"&+	c #DB7738",
"*+	c #CD6733",
"=+	c #D76E34",
"-+	c #AC4F30",
";+	c #413638",
">+	c #4D2E33",
",+	c #D87335",
"'+	c #D87035",
")+	c #D86F35",
"!+	c #D66B33",
"~+	c #D36330",
"{+	c #D87135",
"]+	c #D56F34",
"^+	c #492E33",
"/+	c #9A4E32",
"(+	c #E3883E",
"_+	c #E1833D",
":+	c #944B32",
"<+	c #423738",
"[+	c #693632",
"}+	c #D77A3A",
"|+	c #D47839",
"1+	c #613433",
"2+	c #413437",
"3+	c #E2853E",
"4+	c #D86F34",
"5+	c #B1522F",
"6+	c #413538",
"7+	c #7A3E31",
"8+	c #D2612F",
"9+	c #DB7637",
"0+	c #D1612F",
"a+	c #D26330",
"b+	c #DD7B39",
"c+	c #D26230",
"d+	c #B75530",
"e+	c #D46531",
"f+	c #E2843D",
"g+	c #E1843D",
"h+	c #B15130",
"i+	c #202121",
"j+	c #2E2929",
"k+	c #403534",
"l+	c #763E31",
"m+	c #CF6431",
"n+	c #DA7437",
"o+	c #E4893F",
"p+	c #E3883F",
"q+	c #E0813C",
"r+	c #D97336",
"s+	c #CE6331",
"t+	c #723D32",
"u+	c #463A3A",
"v+	c #473A39",
"w+	c #5A5441",
"x+	c #605842",
"y+	c #5B4F35",
"z+	c #C09727",
"A+	c #92532C",
"B+	c #B8562F",
"C+	c #8F552B",
"D+	c #BC9528",
"E+	c #584C35",
"F+	c #655D44",
"G+	c #544F3F",
"H+	c #4A3C39",
"I+	c #53423F",
"J+	c #675E47",
"K+	c #C5BC72",
"L+	c #DCCF6C",
"M+	c #9F8D32",
"N+	c #67472F",
"O+	c #463739",
"P+	c #7A3D31",
"Q+	c #793D31",
"R+	c #783D31",
"S+	c #793E32",
"T+	c #4C3C3D",
"U+	c #6B4C30",
"V+	c #A49232",
"W+	c #DCCF6F",
"X+	c #C2B970",
"Y+	c #645945",
"Z+	c #614C48",
"`+	c #705751",
" @	c #6A524C",
".@	c #6C544E",
"+@	c #645943",
"@@	c #B8AF6B",
"#@	c #433837",
"$@	c #634E49",
"%@	c #6B544E",
"&@	c #6B534E",
"*@	c #4F403B",
"=@	c #BDB46D",
"-@	c #645643",
";@	c #755A53",
">@	c #50403E",
",@	c #503F3E",
"      .   + @ @ +   .     .   # @ $ $ $ $ % # + % @ +   .       ",
". & * = # - ; ; - # = # # = # - ; $ $ $ $ > - - > ; - # = , ' ) ",
"  * ! ~ @ ; { { ; @ ~ @ @ ~ @ ; { $ $ $ $ { ; ; { { ; % ~ ] ^ / ",
"# - ; $ $ $ $ $ $ $ $ $ $ $ $ $ $ $ $ $ $ $ $ $ $ $ $ ( $ _ : < ",
"@ ; { $ $ $ $ $ $ $ $ $ $ $ $ $ $ $ $ $ $ $ $ $ $ $ $ $ $ [ } | ",
"$ $ $ $ $ $ $ $ $ $ $ $ $ 1 2 3 $ $ $ $ $ $ $ $ $ $ $ ( $ _ : < ",
"$ $ $ $ $ $ $ $ $ $ $ $ 4 5 6 7 4 8 9 $ $ $ $ $ $ $ $ ( $ _ : < ",
"% > { $ $ $ $ $ $ $ $ $ 0 a b c d e f $ $ $ $ $ $ $ $ ( $ _ : < ",
"# - ; $ $ $ $ $ $ $ $ $ 0 g h i j k { $ $ $ $ $ $ $ $ ( $ _ : < ",
"+ - ; $ $ $ $ $ $ l l $ 4 m n o p q l l l $ $ $ $ $ $ ( $ r : < ",
"% > { $ $ $ $ $ 4 s t u v w x y z A B C D 1 $ $ $ $ $ ( $ _ : < ",
"@ ; { $ $ $ $ l E F G H I J K L M N O G P Q l $ $ $ $ ( $ R S : ",
"+ - ; $ $ $ $ l T F G H U V W L M N X G P Y l $ $ $ $ $ $ Z ` _ ",
"  # @ $ $ $ $ l  ...+.@.#.$.L %.&.*.=.-.;.>.l $ $ $ $ $ $ ] ` [ ",
". = ~ $ $ $ $ $ ,.'.).!.~.{.].^./.(._.:.<.[.$ $ $ $ $ ( $ R S : ",
". = ~ $ $ $ $ l }.|.1.2.3.4.5.6.7.8.9.0.a.b.l $ $ $ $ ( $ R S : ",
"  # @ $ c.c.$ l d.e.f.g.h.i.j.k.l.m.g.n.o.p.l $ q.7 $ $ $ ] ` [ ",
"# - ; r.s.t.u.v.w.x.f.g.y.z.A.B.C.g.g.y.D.E.F.G.H.I.J.$ $ Z ` _ ",
"@ ; { { K.L.M.N.O.P.Q.R.g.y.S.T.g.g.U.V.W.X.Y.M.Z.`.{ ( $ R S : ",
"$ $ $ $  +.+y.g.++@+#+$+%+n.f.n.f.&+*+#+=+y.g.++-+;+$ ( $ r : < ",
"$ $ $ $ $ >+,+g.g.y.'+)+!+~+~+~+~+!+)+{+f.g.g.]+^+$ $ ( $ r : < ",
"@ ; { $ $ v./+(+g.g.g.g.++_+_+_+_+y.g.g.g.g.C.:+<+$ $ ( $ ` S : ",
"# - ; $ $ l [+}+g.g.g.g.g.g.g.g.g.g.g.g.g.g.|+1+l $ $ $ $ Z ` _ ",
"  # @ $ $ $ 2+#+)+C.g.g.g.g.g.g.g.g.g.g.3+4+5+6+$ $ $ $ $ $ ( ( ",
". = ~ $ $ l 7+8+%+g.g.g.g.g.g.g.g.g.g.g.g.9+0+b.l $ $ $ $ $ ( ( ",
"  # @ $ $ l 7+a+n.n.b+g.g.g.g.g.g.g.f.g.3+3+c+b.l $ $ $ $ Z ` _ ",
"  # @ $ $ $ 2+d+3+g.m.++g.g.g.g.++m.e+f+g.g+h+6+$ $ $ ( $ ` S : ",
"i+j+k+( l ( 4 l+m+)+n+o+f.n.f.n.p+m.q+r+)+s+t+1 ( u+( v+( _ : < ",
"  # @ l w+x+y+z+A+B+8+~+~+~+~+~+~+~+~+0+#+C+D+E+F+G+l ( $ r : < ",
") H+I+r J+K+L+M+N+O+P+Q+R+Q+Q+Q+Q+Q+Q+S+T+U+V+W+X+Y+r _ _ Z+`+< ",
"/  @.@: : +@@@#@u+` $@$@I+I+$@%@&@%@&@%@: $@*@=@-@: : : : `+;@< ",
"< < < < < : >@( ( [ : : [ _ : < < < < < < : _ ,@: < < < < < < < "};
