/* XPM */
static char * vilain_8_xpm[] = {
"32 32 288 2",
"  	c #222222",
". 	c #212222",
"+ 	c #302A2A",
"@ 	c #413635",
"# 	c #2F2A2A",
"$ 	c #483B3A",
"% 	c #403535",
"& 	c #252424",
"* 	c #2C2828",
"= 	c #2F2A29",
"- 	c #372F2F",
"; 	c #433736",
"> 	c #423736",
", 	c #362E2D",
"' 	c #403532",
") 	c #453835",
"! 	c #3A3131",
"~ 	c #403635",
"{ 	c #463A39",
"] 	c #4D3E3C",
"^ 	c #604B46",
"/ 	c #69514C",
"( 	c #473B3A",
"_ 	c #574542",
": 	c #6D554F",
"< 	c #775C55",
"[ 	c #584643",
"} 	c #6E554F",
"| 	c #785C55",
"1 	c #433737",
"2 	c #423637",
"3 	c #423838",
"4 	c #4DA06B",
"5 	c #31845B",
"6 	c #413537",
"7 	c #473A3A",
"8 	c #574642",
"9 	c #396E52",
"0 	c #41BC7A",
"a 	c #224A43",
"b 	c #27604D",
"c 	c #316E50",
"d 	c #315042",
"e 	c #2B6149",
"f 	c #27A07A",
"g 	c #1D7D76",
"h 	c #21957F",
"i 	c #34A56E",
"j 	c #405543",
"k 	c #534340",
"l 	c #654F4A",
"m 	c #463939",
"n 	c #403436",
"o 	c #5E5640",
"p 	c #8B8652",
"q 	c #8C8858",
"r 	c #58816D",
"s 	c #236A67",
"t 	c #403536",
"u 	c #4C3E3C",
"v 	c #544340",
"w 	c #7E7C7F",
"x 	c #DFDFDF",
"y 	c #C8C8C8",
"z 	c #47423C",
"A 	c #DFD89E",
"B 	c #FDFBE6",
"C 	c #F7ED91",
"D 	c #E2D87E",
"E 	c #AC9A37",
"F 	c #555255",
"G 	c #DADADB",
"H 	c #DBDBDC",
"I 	c #5B5859",
"J 	c #443F44",
"K 	c #FFFFFF",
"L 	c #F6F6F6",
"M 	c #888785",
"N 	c #F4EDA6",
"O 	c #FDFAE4",
"P 	c #F6EB88",
"Q 	c #C5B03A",
"R 	c #BBBBBC",
"S 	c #FEFEFE",
"T 	c #C1C1C2",
"U 	c #3F3436",
"V 	c #3D2B33",
"W 	c #AF6C59",
"X 	c #979193",
"Y 	c #9C8380",
"Z 	c #754735",
"` 	c #F9F0AA",
" .	c #F7EC8A",
"..	c #F6EA86",
"+.	c #9A4832",
"@.	c #9A9192",
"#.	c #9A9293",
"$.	c #9F4C37",
"%.	c #3F3437",
"&.	c #433035",
"*.	c #BB572F",
"=.	c #CE5F2F",
"-.	c #C75C2F",
";.	c #754736",
">.	c #F2E788",
",.	c #F7EC8C",
"'.	c #F3E67A",
").	c #E7D352",
"!.	c #C6B232",
"~.	c #9E4A2F",
"{.	c #CD5F2F",
"].	c #A44E30",
"^.	c #423638",
"/.	c #A9502F",
"(.	c #7F3D30",
"_.	c #8B4230",
":.	c #744636",
"<.	c #F0E585",
"[.	c #EBDD69",
"}.	c #8B7832",
"|.	c #C5B032",
"1.	c #977131",
"2.	c #B25230",
"3.	c #833F30",
"4.	c #843F30",
"5.	c #9F4C30",
"6.	c #D16531",
"7.	c #D77135",
"8.	c #DA7838",
"9.	c #AD6D39",
"0.	c #BFAA39",
"a.	c #96772E",
"b.	c #D0A122",
"c.	c #89692C",
"d.	c #D36F34",
"e.	c #E58A40",
"f.	c #D87335",
"g.	c #B7552F",
"h.	c #413638",
"i.	c #994D32",
"j.	c #E2863D",
"k.	c #E68D41",
"l.	c #E58C41",
"m.	c #A14A31",
"n.	c #BA9E2E",
"o.	c #CDB732",
"p.	c #A96131",
"q.	c #E1853D",
"r.	c #DA7B38",
"s.	c #763B32",
"t.	c #443839",
"u.	c #433738",
"v.	c #593F37",
"w.	c #885337",
"x.	c #BC582F",
"y.	c #A64B31",
"z.	c #D17F3E",
"A.	c #E3873E",
"B.	c #9E5432",
"C.	c #995231",
"D.	c #C6753A",
"E.	c #914230",
"F.	c #BD5C31",
"G.	c #845338",
"H.	c #433536",
"I.	c #453939",
"J.	c #443132",
"K.	c #AC6A3B",
"L.	c #D1803F",
"M.	c #DE7D3A",
"N.	c #C15A2F",
"O.	c #C15D31",
"P.	c #D87035",
"Q.	c #E48A40",
"R.	c #E3863E",
"S.	c #E58B40",
"T.	c #E2863E",
"U.	c #D86F35",
"V.	c #B8552F",
"W.	c #CA6031",
"X.	c #E2853E",
"Y.	c #C97C3E",
"Z.	c #7A4D35",
"`.	c #473434",
" +	c #593F38",
".+	c #885538",
"++	c #DE8840",
"@+	c #DC7939",
"#+	c #D36430",
"$+	c #D36330",
"%+	c #D46731",
"&+	c #E2853D",
"*+	c #E28B40",
"=+	c #CF803E",
"-+	c #835338",
";+	c #4F3634",
">+	c #845337",
",+	c #9C5B37",
"'+	c #D77235",
")+	c #E1833D",
"!+	c #D57035",
"~+	c #895337",
"{+	c #835237",
"]+	c #4C2E33",
"^+	c #BF6133",
"/+	c #9F4A31",
"(+	c #422C33",
"_+	c #763A31",
":+	c #D66B33",
"<+	c #DC7838",
"[+	c #D97236",
"}+	c #D26631",
"|+	c #4E2E33",
"1+	c #3E2C34",
"2+	c #C95D2F",
"3+	c #DE7E3B",
"4+	c #D46631",
"5+	c #B6552F",
"6+	c #202121",
"7+	c #2E2929",
"8+	c #403534",
"9+	c #914530",
"0+	c #E0823B",
"a+	c #E58C40",
"b+	c #DC7938",
"c+	c #DB7738",
"d+	c #703A32",
"e+	c #473A39",
"f+	c #78714E",
"g+	c #483E39",
"h+	c #824A2D",
"i+	c #C95F30",
"j+	c #E0813C",
"k+	c #E0823C",
"l+	c #DD7A39",
"m+	c #DA7436",
"n+	c #DD7C3A",
"o+	c #BE582F",
"p+	c #6A422E",
"q+	c #615842",
"r+	c #625A44",
"s+	c #4A3C39",
"t+	c #53423F",
"u+	c #4F403E",
"v+	c #CDC375",
"w+	c #C5BB70",
"x+	c #A89734",
"y+	c #CFAF2B",
"z+	c #8C4D2D",
"A+	c #CA5E2F",
"B+	c #D1612F",
"C+	c #D76F34",
"D+	c #CF602F",
"E+	c #BF582F",
"F+	c #A36826",
"G+	c #D1B42E",
"H+	c #82763B",
"I+	c #DDD37E",
"J+	c #8F8758",
"K+	c #614C48",
"L+	c #705751",
"M+	c #6A524C",
"N+	c #6C544E",
"O+	c #675946",
"P+	c #DCD27C",
"Q+	c #D6C75B",
"R+	c #524833",
"S+	c #452F36",
"T+	c #9F4D32",
"U+	c #764037",
"V+	c #533C3D",
"W+	c #4A3938",
"X+	c #736533",
"Y+	c #E6DA77",
"Z+	c #C1B76F",
"`+	c #644F49",
" @	c #755A53",
".@	c #70604D",
"+@	c #6A6049",
"@@	c #644E4B",
"#@	c #5F4A48",
"$@	c #4D3E3E",
"%@	c #4C3D3E",
"&@	c #68504D",
"*@	c #725852",
"=@	c #544341",
"-@	c #807653",
";@	c #6E564F",
"      .   + @ @ +   .     .   # @ $ $ $ $ % # + % @ +   .       ",
". & * = # - ; ; - # = # # = # - ; $ $ $ $ > - - > ; - # = , ' ) ",
"  * ! ~ @ ; { { ; @ ~ @ @ ~ @ ; { $ $ $ $ { ; ; { { ; % ~ ] ^ / ",
"# - ; $ $ $ $ $ $ $ $ $ $ $ $ $ $ $ $ $ $ $ $ $ $ $ $ ( $ _ : < ",
"@ ; { $ $ $ $ $ $ $ $ $ $ $ $ $ $ $ $ $ $ $ $ $ $ $ $ $ $ [ } | ",
"$ $ $ $ $ $ $ $ $ $ $ $ $ $ $ $ $ $ $ $ $ $ $ $ $ $ $ ( $ _ : < ",
"$ $ $ $ $ $ $ $ $ $ $ $ $ $ $ $ $ $ $ $ $ $ $ $ $ $ $ ( $ _ : < ",
"% > { $ $ $ $ $ $ $ $ $ $ $ $ $ $ $ $ $ $ $ $ $ $ $ $ ( $ _ : < ",
"# - ; $ $ $ $ $ $ $ $ $ $ $ 1 2 $ $ $ $ $ $ $ $ $ $ $ ( $ _ : < ",
"+ - ; $ $ $ $ $ $ $ $ $ $ 3 4 5 6 7 7 $ $ $ $ $ $ $ $ ( $ 8 : < ",
"% > { $ $ $ $ $ $ $ $ $ 7 9 0 a b c d 7 $ $ $ $ $ $ $ ( $ _ : < ",
"@ ; { $ $ $ $ $ $ $ $ $ 7 e f g h i j $ $ $ $ $ $ $ $ ( $ k l : ",
"+ - ; $ $ $ $ $ $ m n 2 $ o p q r s 2 t t $ $ $ $ $ $ $ $ u v _ ",
"  # @ $ $ $ $ $ { w x y z A B C D E F G H I $ $ $ $ $ $ $ ] v [ ",
". = ~ $ $ $ $ $ J x K L M N O C P Q R S K T U $ $ $ $ ( $ k l : ",
". = ~ $ $ $ $ $ V W X Y Z N `  ...Q +.@.#.$.%.$ $ $ $ ( $ k l : ",
"  # @ $ $ $ $ $ &.*.=.-.;.>.,.'.).!.~.{.=.].^.$ $ $ $ $ $ ] v [ ",
"# - ; $ $ $ $ $ &./.(._.:.<.[.}.|.1.2.3.4.5.^.$ $ $ $ $ $ u v _ ",
"@ ; { $ $ $ $ $ V 6.7.8.9.0.a.b.c.d.e.f.7.g.%.$ $ $ $ ( $ k l : ",
"$ $ $ $ $ $ $ $ h.i.j.k.l.m.n.o.p.q.k.k.r.s.t.$ $ $ $ ( $ 8 : < ",
"$ $ $ $ $ $ u.v.w.x.y.z.k.A.B.C.j.k.k.D.E.F.G.H.I.$ $ ( $ 8 : < ",
"@ ; { $ { J.K.L.k.M.N.O.P.Q.R.j.S.T.U.V.W.X.k.Y.Z.`.7 ( $ v l : ",
"# - ;  +.+++l.k.k.k.@+U.U.#+$+$+$+%+U.U.&+k.k.k.*+=+-+$ $ u v _ ",
"  # @ ;+>+,+'+Q.k.k.k.k.k.)+)+)+)+T.k.k.k.k.k.T.!+~+{+$ $ $ ( ( ",
". = ~ 7 7 u.]+^+Q.k.k.k.k.k.k.k.k.k.k.k.k.k.T./+(+m 7 $ $ $ ( ( ",
"  # @ $ $ $ { _+:+<+k.k.k.k.k.k.k.k.k.k.l.[+}+|+$ $ $ $ $ u v _ ",
"  # @ $ $ $ 1+2+:+e.A.k.k.k.k.k.k.k.k.k.k.3+4+5+%.$ $ ( $ v l : ",
"6+7+8+( 7 ( ^.9+0+k.A.S.k.k.k.k.k.a+b+c+k.T.7.d+I.( ( e+( _ : < ",
"  # @ m f+g+^.h+i+j+k+@+k.k.k.k.l.l+b+m+)+n+o+p+I.q+r+( $ 8 : < ",
") s+t+u+v+w+x+y+z+A+B+C+U.U.U.U.U.U.U.:+D+E+F+G+H+I+J+_ _ K+L+< ",
"/ M+N+: O+P+Q+R+1 S+T+g.g.g.g.g.g.g.g.g.U+V+W+X+Y+Z+`+: : L+ @< ",
"< < < < < .@+@( ( [ @@#@$@%@#@&@&@&@&@&@*@: _ =@-@;@< < < < < < "};
