/* XPM */
static char * vilain_6_xpm[] = {
"32 32 280 2",
"  	c #222222",
". 	c #212222",
"+ 	c #302A2A",
"@ 	c #413635",
"# 	c #2F2A2A",
"$ 	c #483B3A",
"% 	c #403535",
"& 	c #252424",
"* 	c #2C2828",
"= 	c #2F2A29",
"- 	c #372F2F",
"; 	c #433736",
"> 	c #423736",
", 	c #362E2D",
"' 	c #403532",
") 	c #453835",
"! 	c #3A3131",
"~ 	c #403635",
"{ 	c #463A39",
"] 	c #4D3E3C",
"^ 	c #604B46",
"/ 	c #69514C",
"( 	c #473B3A",
"_ 	c #574542",
": 	c #6D554F",
"< 	c #775C55",
"[ 	c #584643",
"} 	c #6E554F",
"| 	c #785C55",
"1 	c #574642",
"2 	c #473A3A",
"3 	c #333C36",
"4 	c #2F3935",
"5 	c #453939",
"6 	c #473A39",
"7 	c #3F664B",
"8 	c #51BE7C",
"9 	c #2C9463",
"0 	c #2C3937",
"a 	c #534340",
"b 	c #654F4A",
"c 	c #443838",
"d 	c #399565",
"e 	c #30A46C",
"f 	c #1F5C5E",
"g 	c #2C8D5F",
"h 	c #313E36",
"i 	c #4C3E3C",
"j 	c #544340",
"k 	c #2F7953",
"l 	c #1F7971",
"m 	c #1D7871",
"n 	c #1F907F",
"o 	c #48B277",
"p 	c #304239",
"q 	c #443839",
"r 	c #442C33",
"s 	c #3F2A33",
"t 	c #453537",
"u 	c #ABA267",
"v 	c #D6CB7A",
"w 	c #D5CC79",
"x 	c #596C58",
"y 	c #3D4644",
"z 	c #3D3337",
"A 	c #432C33",
"B 	c #433739",
"C 	c #864331",
"D 	c #CD5F2F",
"E 	c #CF5F2F",
"F 	c #A64E2F",
"G 	c #726847",
"H 	c #FAF7D8",
"I 	c #FEFCEF",
"J 	c #F7EC8A",
"K 	c #F0E47F",
"L 	c #938131",
"M 	c #874330",
"N 	c #CE5F2F",
"O 	c #A44E30",
"P 	c #493738",
"Q 	c #362D35",
"R 	c #7A3B30",
"S 	c #813E30",
"T 	c #7E3D30",
"U 	c #716746",
"V 	c #F9F0A9",
"W 	c #F9F0AD",
"X 	c #F4E881",
"Y 	c #968331",
"Z 	c #362732",
"` 	c #392D35",
" .	c #C65C2F",
"..	c #CC5F2F",
"+.	c #7C6946",
"@.	c #FBF5C5",
"#.	c #F7ED94",
"$.	c #F0E175",
"%.	c #988531",
"&.	c #C75C2F",
"*.	c #CC5E2F",
"=.	c #4B2C32",
"-.	c #423738",
";.	c #8B4431",
">.	c #A84F2F",
",.	c #716747",
"'.	c #F4E882",
").	c #E6D457",
"!.	c #E2CB37",
"~.	c #9B8831",
"{.	c #8C4230",
"].	c #A64F2F",
"^.	c #483637",
"/.	c #3A2D35",
"(.	c #BD582F",
"_.	c #803C30",
":.	c #7C3930",
"<.	c #B75E33",
"[.	c #7B6640",
"}.	c #F2E579",
"|.	c #BDA73F",
"1.	c #815A2A",
"2.	c #B9A131",
"3.	c #BA6333",
"4.	c #CC6A34",
"5.	c #7F3A30",
"6.	c #B3532F",
"7.	c #4C2D32",
"8.	c #8A4331",
"9.	c #DB7837",
"0.	c #E2843D",
"a.	c #E4893F",
"b.	c #C57E3C",
"c.	c #837131",
"d.	c #B88623",
"e.	c #D9BA2D",
"f.	c #784C2F",
"g.	c #E0813B",
"h.	c #E58B40",
"i.	c #DF7F3A",
"j.	c #A44A2F",
"k.	c #6D4737",
"l.	c #C15B30",
"m.	c #9F4730",
"n.	c #CD7C3D",
"o.	c #E68D41",
"p.	c #E48A40",
"q.	c #A85532",
"r.	c #BFA831",
"s.	c #9F7E31",
"t.	c #D57436",
"u.	c #E68C41",
"v.	c #D5833F",
"w.	c #AE5231",
"x.	c #814E37",
"y.	c #593C35",
"z.	c #D98540",
"A.	c #DF803C",
"B.	c #C35B30",
"C.	c #BF6032",
"D.	c #E4883E",
"E.	c #B85731",
"F.	c #CF7238",
"G.	c #E58C40",
"H.	c #CB7037",
"I.	c #BC572F",
"J.	c #DB7738",
"K.	c #E08940",
"L.	c #875538",
"M.	c #463A3A",
"N.	c #433738",
"O.	c #915A38",
"P.	c #DE7D3A",
"Q.	c #D76D34",
"R.	c #D36430",
"S.	c #E0813C",
"T.	c #E1833D",
"U.	c #E0823C",
"V.	c #E1823C",
"W.	c #D46631",
"X.	c #D66A33",
"Y.	c #DA7437",
"Z.	c #B56F3C",
"`.	c #4B3938",
" +	c #473433",
".+	c #DD8740",
"++	c #D36330",
"@+	c #E58C41",
"#+	c #5E3C33",
"$+	c #B16C3C",
"%+	c #E1833C",
"&+	c #DE7E3B",
"*+	c #D1803E",
"=+	c #3B3134",
"-+	c #4A4239",
";+	c #413638",
">+	c #CE6D35",
",+	c #B24F2F",
"'+	c #C85F31",
")+	c #B85C33",
"!+	c #D4803E",
"~+	c #423334",
"{+	c #494237",
"]+	c #202121",
"^+	c #2E2929",
"/+	c #403534",
"(+	c #433839",
"_+	c #BCB36C",
":+	c #725E41",
"<+	c #C4783C",
"[+	c #944A31",
"}+	c #D0612F",
"|+	c #DF7F3B",
"1+	c #E4883F",
"2+	c #D46531",
"3+	c #A84F30",
"4+	c #865638",
"5+	c #D7CD79",
"6+	c #BDB46C",
"7+	c #BAA845",
"8+	c #403A30",
"9+	c #89442F",
"0+	c #D0602F",
"a+	c #D97236",
"b+	c #DC7838",
"c+	c #DF7E3B",
"d+	c #E2853E",
"e+	c #DD7C3A",
"f+	c #D36230",
"g+	c #443730",
"h+	c #9A8839",
"i+	c #DCD179",
"j+	c #3C3134",
"k+	c #4A3C39",
"l+	c #53423F",
"m+	c #50473B",
"n+	c #E5D97A",
"o+	c #BEAA32",
"p+	c #A57325",
"q+	c #904430",
"r+	c #CF602F",
"s+	c #E0803C",
"t+	c #D2622F",
"u+	c #AD512F",
"v+	c #8B5828",
"w+	c #BFA931",
"x+	c #E0D26E",
"y+	c #655F41",
"z+	c #564542",
"A+	c #614C48",
"B+	c #705751",
"C+	c #6A524C",
"D+	c #6C544E",
"E+	c #654F4B",
"F+	c #817953",
"G+	c #493B3C",
"H+	c #3F3437",
"I+	c #3E3437",
"J+	c #763D32",
"K+	c #B25330",
"L+	c #C55B2F",
"M+	c #7A3E31",
"N+	c #503B3B",
"O+	c #584544",
"P+	c #5F4A48",
"Q+	c #7D7352",
"R+	c #68544B",
"S+	c #755A53",
"T+	c #6B544E",
"U+	c #5E4544",
"V+	c #4D363A",
"W+	c #493036",
"X+	c #442E36",
"Y+	c #51373A",
"Z+	c #51393D",
"`+	c #553A3D",
" @	c #543A3D",
".@	c #543C3E",
"+@	c #554441",
"@@	c #755B54",
"      .   + @ @ +   .     .   # @ $ $ $ $ % # + % @ +   .       ",
". & * = # - ; ; - # = # # = # - ; $ $ $ $ > - - > ; - # = , ' ) ",
"  * ! ~ @ ; { { ; @ ~ @ @ ~ @ ; { $ $ $ $ { ; ; { { ; % ~ ] ^ / ",
"# - ; $ $ $ $ $ $ $ $ $ $ $ $ $ $ $ $ $ $ $ $ $ $ $ $ ( $ _ : < ",
"@ ; { $ $ $ $ $ $ $ $ $ $ $ $ $ $ $ $ $ $ $ $ $ $ $ $ $ $ [ } | ",
"$ $ $ $ $ $ $ $ $ $ $ $ $ $ $ $ $ $ $ $ $ $ $ $ $ $ $ ( $ _ : < ",
"$ $ $ $ $ $ $ $ $ $ $ $ $ $ $ $ $ $ $ $ $ $ $ $ $ $ $ ( $ _ : < ",
"% > { $ $ $ $ $ $ $ $ $ $ $ $ $ $ $ $ $ $ $ $ $ $ $ $ ( $ _ : < ",
"# - ; $ $ $ $ $ $ $ $ $ $ $ $ $ $ $ $ $ $ $ $ $ $ $ $ ( $ _ : < ",
"+ - ; $ $ $ $ $ $ $ $ $ $ $ $ $ $ $ $ $ $ $ $ $ $ $ $ ( $ 1 : < ",
"% > { $ $ $ $ $ $ $ $ $ $ $ 2 3 4 5 $ $ $ $ $ $ $ $ $ ( $ _ : < ",
"@ ; { $ $ $ $ $ $ $ $ $ $ 6 7 8 9 0 $ $ $ $ $ $ $ $ $ ( $ a b : ",
"+ - ; $ $ $ $ $ $ $ $ $ $ c d e f g h 5 $ $ $ $ $ $ $ $ $ i j _ ",
"  # @ $ $ $ $ $ $ $ $ $ $ 5 k l m n o p $ $ $ $ $ $ $ $ $ ] j [ ",
". = ~ $ $ $ $ $ $ q r s t q u v w x y z A s t $ $ $ $ ( $ a b : ",
". = ~ $ $ $ $ $ B C D E F G H I J K L M N E O P $ $ $ ( $ a b : ",
"  # @ $ $ $ $ $ Q R S T S U V W J X Y R S T S Z $ $ $ $ $ ] j [ ",
"# - ; $ $ $ $ $ `  .D E ..+.@.#.J $.%.&.N E *.=.$ $ $ $ $ i j _ ",
"@ ; { $ $ $ $ $ -.;.D E >.,.J '.).!.~.{.N E ].^.$ $ $ ( $ a b : ",
"$ $ $ $ $ $ $ $ /.(._.:.<.[.}.|.1.2.3.4.5.:.6.7.$ $ $ ( $ 1 : < ",
"$ $ $ $ $ $ $ $ -.8.9.0.a.b.c.d.e.f.g.h.0.i.j.^.$ $ $ ( $ 1 : < ",
"@ ; { $ $ $ $ 2 k.l.m.n.o.p.q.r.s.t.u.o.v.w.6.x.c $ $ ( $ j b : ",
"# - ; $ $ $ $ y.z.A.B.C.h.o.D.E.F.u.o.G.H.I.J.K.L.M.$ $ $ i j _ ",
"  # @ $ $ $ N.O.o.o.P.Q.R.S.T.S.U.T.V.W.X.Y.u.o.Z.`.$ $ $ $ ( ( ",
". = ~ $ $ $  +.+o.G.o.h.V.W.R.++R.++R.S.a.o.@+o.@+#+$ $ $ $ ( ( ",
"  # @ $ $ q $+h.%+J.o.o.o.G.h.G.h.G.h.o.o.o.&+U.a.*+=+$ $ i j _ ",
"  # @ $ -+;+Z.>+,+p.@+o.o.o.o.o.o.o.o.o.o.o.@+'+)+!+~+{+$ j b : ",
"]+^+/+(+_+:+<+[+}+p.|+h.o.o.o.o.o.o.o.h.T.1+V.2+3+<+4+5+=+_ : < ",
"  # @ q 6+7+8+9+0+a+h.b+o.o.o.o.o.o.c+d+R.a.e+f+].g+h+i+j+1 : < ",
") k+l+1 m+n+o+p+q+r+R.|+T.T.T.T.T.T.U.T.s+W.t+u+v+w+x+y+z+A+B+< ",
"/ C+D+: E+F+G+H+I+J+K+E D E D E D E N E N L+M+N+O+P+Q+R+: B+S+< ",
"< < < < < T+_ ( ( _ U+V+W+X+Y+Z+`+Z+ @Z+ @.@+@_ : < @@< < < < < "};
