/* XPM */
static char * vilain_2_xpm[] = {
"32 32 295 2",
"  	c #222222",
". 	c #212222",
"+ 	c #302A2A",
"@ 	c #413635",
"# 	c #2F2A2A",
"$ 	c #483B3A",
"% 	c #403535",
"& 	c #252424",
"* 	c #2C2828",
"= 	c #2F2A29",
"- 	c #372F2F",
"; 	c #433736",
"> 	c #423736",
", 	c #362E2D",
"' 	c #403532",
") 	c #453835",
"! 	c #3A3131",
"~ 	c #403635",
"{ 	c #463A39",
"] 	c #4D3E3C",
"^ 	c #604B46",
"/ 	c #69514C",
"( 	c #453839",
"_ 	c #403437",
": 	c #473B3A",
"< 	c #574542",
"[ 	c #6D554F",
"} 	c #775C55",
"| 	c #417B56",
"1 	c #315D47",
"2 	c #584643",
"3 	c #6E554F",
"4 	c #785C55",
"5 	c #2E3336",
"6 	c #57CE86",
"7 	c #255643",
"8 	c #413336",
"9 	c #2C5D46",
"0 	c #34654B",
"a 	c #433638",
"b 	c #2C3035",
"c 	c #3DBB79",
"d 	c #245745",
"e 	c #1D7A74",
"f 	c #2EA873",
"g 	c #3E674C",
"h 	c #473A39",
"i 	c #353236",
"j 	c #1C906B",
"k 	c #0A7873",
"l 	c #128078",
"m 	c #1C8B81",
"n 	c #322731",
"o 	c #2E2833",
"p 	c #2F2933",
"q 	c #3F3737",
"r 	c #DACF7A",
"s 	c #D9CF7A",
"t 	c #B4B06D",
"u 	c #1C4E4F",
"v 	c #443738",
"w 	c #342C34",
"x 	c #443839",
"y 	c #453938",
"z 	c #878689",
"A 	c #FFFFFF",
"B 	c #FDFDFD",
"C 	c #707077",
"D 	c #E2D883",
"E 	c #F9F0A8",
"F 	c #F7EC8B",
"G 	c #E3CF4C",
"H 	c #51525C",
"I 	c #F0F0F0",
"J 	c #A8A8AA",
"K 	c #423636",
"L 	c #574642",
"M 	c #3B302F",
"N 	c #E8E8E9",
"O 	c #D4D4D6",
"P 	c #E1D77F",
"Q 	c #F9F1B4",
"R 	c #F7ED93",
"S 	c #A1A1A5",
"T 	c #2A2126",
"U 	c #3C3337",
"V 	c #703F3A",
"W 	c #E0E1E1",
"X 	c #DDDEDE",
"Y 	c #5C1B23",
"Z 	c #E2D882",
"` 	c #FBF6CF",
" .	c #F7EC8A",
"..	c #F6EA86",
"+.	c #E2CD47",
"@.	c #430E24",
"#.	c #D1CECE",
"$.	c #E0E1E2",
"%.	c #8F706D",
"&.	c #302B34",
"*.	c #534340",
"=.	c #654F4A",
"-.	c #453939",
";.	c #713932",
">.	c #B75125",
",.	c #B55025",
"'.	c #5D262D",
").	c #E2D87F",
"!.	c #F7EC89",
"~.	c #EAD861",
"{.	c #E5D04B",
"].	c #DFC832",
"^.	c #452130",
"/.	c #AE4D27",
"(.	c #843F2E",
"_.	c #423739",
":.	c #4C3E3C",
"<.	c #544340",
"[.	c #3B3237",
"}.	c #BD582F",
"|.	c #733730",
"1.	c #783A30",
"2.	c #B25831",
"3.	c #DDD171",
"4.	c #E5D569",
"5.	c #86682B",
"6.	c #987E2D",
"7.	c #8C6030",
"8.	c #DA7034",
"9.	c #8D4630",
"0.	c #723730",
"a.	c #C35A2F",
"b.	c #2B2A34",
"c.	c #BF592F",
"d.	c #E2843D",
"e.	c #DE8840",
"f.	c #8F7232",
"g.	c #92712A",
"h.	c #D6B32B",
"i.	c #B59C2E",
"j.	c #C15A30",
"k.	c #E78E41",
"l.	c #E3853E",
"m.	c #D36732",
"n.	c #5C4037",
"o.	c #815135",
"p.	c #704835",
"q.	c #473A3A",
"r.	c #C05A30",
"s.	c #E68E41",
"t.	c #E68D41",
"u.	c #D97437",
"v.	c #957430",
"w.	c #C3B032",
"x.	c #9F4D31",
"y.	c #E4883F",
"z.	c #D46A33",
"A.	c #2A2934",
"B.	c #5C3F36",
"C.	c #815035",
"D.	c #6F4836",
"E.	c #453A3A",
"F.	c #593F37",
"G.	c #CB6B35",
"H.	c #DF8940",
"I.	c #684435",
"J.	c #463939",
"K.	c #713A32",
"L.	c #DD7A39",
"M.	c #D47639",
"N.	c #B85430",
"O.	c #8C4631",
"P.	c #433839",
"Q.	c #3F3135",
"R.	c #D6833F",
"S.	c #D97537",
"T.	c #6D4736",
"U.	c #463A3A",
"V.	c #342832",
"W.	c #DA7236",
"X.	c #E58D41",
"Y.	c #7D4E35",
"Z.	c #C45D30",
"`.	c #8E422F",
" +	c #C6763B",
".+	c #CE7E3E",
"++	c #A24B2F",
"@+	c #C45B2F",
"#+	c #7C4E35",
"$+	c #D9853F",
"%+	c #E1803B",
"&+	c #623230",
"*+	c #433738",
"=+	c #9E4F31",
"-+	c #E2853E",
";+	c #CA5D2F",
">+	c #B7552F",
",+	c #D86E34",
"'+	c #E3883F",
")+	c #E68C41",
"!+	c #BD5A30",
"~+	c #C1592F",
"{+	c #DF7F3B",
"]+	c #BA5E32",
"^+	c #4C3636",
"/+	c #733A31",
"(+	c #DA7C3B",
"_+	c #E1843D",
":+	c #D76E34",
"<+	c #D86F34",
"[+	c #D36330",
"}+	c #D2602F",
"|+	c #D2612F",
"1+	c #D76F34",
"2+	c #DD7B39",
"3+	c #974730",
"4+	c #BE592F",
"5+	c #E1833D",
"6+	c #D36932",
"7+	c #2B2934",
"8+	c #3F3538",
"9+	c #A95031",
"0+	c #E3873E",
"a+	c #E58A40",
"b+	c #BD5F32",
"c+	c #342F36",
"d+	c #312732",
"e+	c #D56631",
"f+	c #D86F35",
"g+	c #DA7537",
"h+	c #D76A32",
"i+	c #603130",
"j+	c #BE582F",
"k+	c #D46531",
"l+	c #D56932",
"m+	c #CF602F",
"n+	c #2A2A34",
"o+	c #D97236",
"p+	c #DF803B",
"q+	c #A84F30",
"r+	c #E48A40",
"s+	c #E0803C",
"t+	c #BA572F",
"u+	c #312832",
"v+	c #DB7637",
"w+	c #D2622F",
"x+	c #202121",
"y+	c #2E2929",
"z+	c #403534",
"A+	c #743B32",
"B+	c #CE5F2F",
"C+	c #DE7E3B",
"D+	c #984930",
"E+	c #3B3337",
"F+	c #6A3530",
"G+	c #9C4930",
"H+	c #B8552F",
"I+	c #733830",
"J+	c #2D2A34",
"K+	c #4A3C39",
"L+	c #53423F",
"M+	c #898253",
"N+	c #A0995E",
"O+	c #AEA04B",
"P+	c #CBB532",
"Q+	c #996727",
"R+	c #322B35",
"S+	c #312933",
"T+	c #302933",
"U+	c #332C35",
"V+	c #352C35",
"W+	c #352D35",
"X+	c #77512E",
"Y+	c #C3A92F",
"Z+	c #C8B641",
"`+	c #8E8856",
" @	c #B4AC68",
".@	c #524140",
"+@	c #614C48",
"@@	c #705751",
"#@	c #6A524C",
"$@	c #6C544E",
"%@	c #51413E",
"&@	c #847E51",
"*@	c #DACF76",
"=@	c #534539",
"-@	c #5C4846",
";@	c #68514D",
">@	c #574544",
",@	c #B8AD5F",
"'@	c #A59D60",
")@	c #5E4945",
"!@	c #755A53",
"~@	c #372F35",
"{@	c #4C3D3E",
"      .   + @ @ +   .     .   # @ $ $ $ $ % # + % @ +   .       ",
". & * = # - ; ; - # = # # = # - ; $ $ $ $ > - - > ; - # = , ' ) ",
"  * ! ~ @ ; { { ; @ ~ @ @ ~ @ ; { $ $ $ $ { ; ; { { ; % ~ ] ^ / ",
"# - ; $ $ $ $ $ $ $ $ $ $ $ ( _ $ $ $ $ $ $ $ $ $ $ $ : $ < [ } ",
"@ ; { $ $ $ $ $ $ $ $ $ $ $ | 1 $ $ $ $ $ $ $ $ $ $ $ $ $ 2 3 4 ",
"$ $ $ $ $ $ $ $ $ $ $ $ $ 5 6 7 8 9 0 a $ $ $ $ $ $ $ : $ < [ } ",
"$ $ $ $ $ $ $ $ $ $ $ $ $ b c d e f g h $ $ $ $ $ $ $ : $ < [ } ",
"% > { $ $ $ $ $ $ $ $ $ $ i j k l m n $ $ $ $ $ $ $ $ : $ < [ } ",
"# - ; $ $ $ $ $ $ $ o p $ q r s t u v w o x $ $ $ $ $ : $ < [ } ",
"+ - ; $ $ $ $ $ y z A B C D A E F G H I A J K $ $ $ $ : $ L [ } ",
"% > { $ $ $ $ $ M N A A O P Q R F G S A A B T $ $ $ $ : $ < [ } ",
"@ ; { $ $ $ $ $ U V W X Y Z `  ...+.@.#.$.%.&.$ $ $ $ : $ *.=.[ ",
"+ - ; $ $ $ $ $ -.;.>.,.'.).!.~.{.].^./.>.(._.$ $ $ $ $ $ :.<.< ",
"  # @ $ $ $ $ $ [.}.|.1.2.3.4.5.6.7.8.9.0.a.b.$ $ $ $ $ $ ] <.2 ",
". = ~ $ $ $ $ $ [.c.d.d.e.f.g.h.i.j.k.l.d.m.b.$ $ $ $ : $ *.=.[ ",
". = ~ $ n.o.p.q.[.r.s.t.t.u.v.w.x.y.t.t.s.z.A.$ B.C.D.E.$ *.=.[ ",
"  # @ $ F.G.H.I.J.K.L.t.t.t.M.N.y.t.t.t.d.O.P.Q.R.S.T.U.$ ] <.2 ",
"# - ; $ $ V.W.X.Y.Z.`. +k.t.t.t.t.t.k..+++@+#+$+%+&+$ $ $ :.<.< ",
"@ ; { $ $ *+=+y.k.-+;+>+,+'+t.t.t.)+,+!+~+{+k.)+]+^+$ : $ *.=.[ ",
"$ $ $ $ $ $ /+(+t.t._+:+<+[+}+}+}+|+<+1+2+t.t._+3+x $ : $ L [ } ",
"$ $ $ $ $ $ [.4+t.t.t.t.s.-+5+5+5+_+s.t.t.t.s.6+7+$ $ : $ L [ } ",
"@ ; { $ $ $ 8+9+0+t.t.t.t.t.t.t.t.t.t.t.t.t.a+b+c+$ $ : $ <.=.[ ",
"# - ; $ $ $ $ d+e+f+t.t.t.t.t.t.t.t.t.t.t.g+h+i+$ $ $ $ $ :.<.< ",
"  # @ $ $ $ [.j+k+'+t.t.t.t.t.t.t.t.t.t.t.)+l+m+n+$ $ $ $ $ : : ",
". = ~ $ $ $ [.j+o+t.t.t.t.t.t.t.t.t.t.t.t.t.p+m+n+$ $ $ $ $ : : ",
"  # @ $ $ $ 8+q+o+t.5+'+t.t.t.t.t.t.r+_+s.g+s+t+c+$ $ $ $ :.<.< ",
"  # @ $ $ $ $ u+e+'+s.v+t.t.t.t.t.v+p+w+s.t.h+i+$ $ $ : $ <.=.[ ",
"x+y+z+: $ : $ $ A+B+|+C+5+5+5+5+5+5+5+5+|+|+D+P.: : : h : < [ } ",
"  # @ $ $ $ o x E+F+G+|+}+}+}+}+}+}+}+}+H+I+J+$ o ( $ : $ L [ } ",
") K+L+L L <.M+N+O+P+Q+R+S+T+U+V+W+V+V+W+X+Y+Z+`+ @.@L < < +@@@} ",
"/ #@$@[ [ =.%@&@*@=@-@=.<.<.=.[ [ [ [ [ ;@>@,@'@)@[ [ [ [ @@!@} ",
"} } } } } [ < : ~@2 [ [ 2 < [ } } } } } } [ {@.@[ } } } } } } } "};
