/* XPM */
static char * vilain_4_xpm[] = {
"32 32 300 2",
"  	c #222222",
". 	c #212222",
"+ 	c #302A2A",
"@ 	c #413635",
"# 	c #202024",
"$ 	c #53B477",
"% 	c #378B5F",
"& 	c #2D282B",
"* 	c #383635",
"= 	c #313C36",
"- 	c #3D3337",
"; 	c #483B3A",
"> 	c #403535",
", 	c #2F2A2A",
"' 	c #252424",
") 	c #2C2828",
"! 	c #2F2A29",
"~ 	c #372F2F",
"{ 	c #433736",
"] 	c #27232A",
"^ 	c #52C17E",
"/ 	c #298058",
"( 	c #214D4F",
"_ 	c #288361",
": 	c #50B074",
"< 	c #3C3235",
"[ 	c #423736",
"} 	c #362E2D",
"| 	c #403532",
"1 	c #453835",
"2 	c #3A3131",
"3 	c #403635",
"4 	c #463A39",
"5 	c #342C30",
"6 	c #2DA26D",
"7 	c #218A76",
"8 	c #1C877E",
"9 	c #1F9280",
"0 	c #284141",
"a 	c #4D3E3C",
"b 	c #604B46",
"c 	c #69514C",
"d 	c #473A3A",
"e 	c #3F3436",
"f 	c #433738",
"g 	c #827F4D",
"h 	c #8E8957",
"i 	c #85855A",
"j 	c #1D7972",
"k 	c #303A3E",
"l 	c #443838",
"m 	c #413536",
"n 	c #473B3A",
"o 	c #574542",
"p 	c #6D554F",
"q 	c #775C55",
"r 	c #646263",
"s 	c #DDDDDE",
"t 	c #696668",
"u 	c #999053",
"v 	c #F8F5DF",
"w 	c #FAF4C2",
"x 	c #F3E888",
"y 	c #CFC15F",
"z 	c #514833",
"A 	c #A5A4A5",
"B 	c #D6D6D6",
"C 	c #4A4344",
"D 	c #584643",
"E 	c #6E554F",
"F 	c #785C55",
"G 	c #392F33",
"H 	c #ECECED",
"I 	c #FFFFFF",
"J 	c #EFEFF0",
"K 	c #B1A861",
"L 	c #FCF9DF",
"M 	c #FAF3C1",
"N 	c #F7EC8A",
"O 	c #EFE06C",
"P 	c #7C7665",
"Q 	c #FCFCFC",
"R 	c #BCBCBE",
"S 	c #453939",
"T 	c #393035",
"U 	c #9A9597",
"V 	c #F9F9F9",
"W 	c #A19D9E",
"X 	c #B1A75F",
"Y 	c #FBF7D5",
"Z 	c #EFE06A",
"` 	c #675F47",
" .	c #D0CFCF",
"..	c #F3F3F3",
"+.	c #746F72",
"@.	c #A64E30",
"#.	c #87564F",
"$.	c #A74E2F",
"%.	c #B2AA67",
"&.	c #F7ED91",
"*.	c #F5E982",
"=.	c #F1E376",
"-.	c #E2CB38",
";.	c #6A5430",
">.	c #9E5140",
",.	c #875148",
"'.	c #864232",
").	c #463939",
"!.	c #AA5030",
"~.	c #823E30",
"{.	c #A94D30",
"].	c #B2A965",
"^.	c #F5E984",
"/.	c #BEAB48",
"(.	c #8F7C31",
"_.	c #BCA732",
":.	c #B15A30",
"<.	c #9F4A30",
"[.	c #843F30",
"}.	c #8A4431",
"|.	c #443839",
"1.	c #403537",
"2.	c #382F36",
"3.	c #C65D30",
"4.	c #D67135",
"5.	c #DD853E",
"6.	c #A58638",
"7.	c #BDA737",
"8.	c #AE8426",
"9.	c #CA9C23",
"0.	c #964730",
"a.	c #E3873F",
"b.	c #DE803B",
"c.	c #D77034",
"d.	c #9D492F",
"e.	c #574642",
"f.	c #392F34",
"g.	c #B7703C",
"h.	c #4A3734",
"i.	c #C76031",
"j.	c #E68D41",
"k.	c #D2793A",
"l.	c #6E4C2F",
"m.	c #DAC030",
"n.	c #987E31",
"o.	c #CC6F36",
"p.	c #E58C40",
"q.	c #E4893F",
"r.	c #9A442F",
"s.	c #5D3D33",
"t.	c #945C39",
"u.	c #D67E3C",
"v.	c #C0763E",
"w.	c #513C37",
"x.	c #E68C41",
"y.	c #D37236",
"z.	c #814930",
"A.	c #D06F35",
"B.	c #E58C41",
"C.	c #684536",
"D.	c #DA853F",
"E.	c #A86238",
"F.	c #534340",
"G.	c #654F4A",
"H.	c #7B3C31",
"I.	c #E0813B",
"J.	c #C77B3E",
"K.	c #453333",
"L.	c #834231",
"M.	c #DF813B",
"N.	c #E2843D",
"O.	c #D37135",
"P.	c #663733",
"Q.	c #5D3C33",
"R.	c #D78440",
"S.	c #D36F35",
"T.	c #5F3334",
"U.	c #4C3E3C",
"V.	c #544340",
"W.	c #4B3034",
"X.	c #CB6E36",
"Y.	c #E58B40",
"Z.	c #BF763D",
"`.	c #C25D30",
" +	c #994330",
".+	c #CA7A3C",
"++	c #E38B40",
"@+	c #C16C37",
"#+	c #8F4330",
"$+	c #B15A33",
"%+	c #DB863F",
"&+	c #B45831",
"*+	c #3C3237",
"=+	c #934130",
"-+	c #E4883F",
";+	c #E0823C",
">+	c #C55D30",
",+	c #BB5830",
"'+	c #D86F35",
")+	c #DF803B",
"!+	c #D46C34",
"~+	c #B6552F",
"{+	c #D06431",
"]+	c #E3883F",
"^+	c #DF7D39",
"/+	c #563031",
"(+	c #382F35",
"_+	c #803B32",
":+	c #DC7F3C",
"<+	c #D46531",
"[+	c #D36430",
"}+	c #D36330",
"|+	c #D56A32",
"1+	c #D87035",
"2+	c #CE7136",
"3+	c #4E3033",
"4+	c #563C37",
"5+	c #392F36",
"6+	c #E2853D",
"7+	c #E1833D",
"8+	c #4C3D3C",
"9+	c #3E3337",
"0+	c #B15631",
"a+	c #DD813C",
"b+	c #863E31",
"c+	c #5A3031",
"d+	c #D56932",
"e+	c #DA7436",
"f+	c #D87135",
"g+	c #C95F30",
"h+	c #412F35",
"i+	c #C25A2F",
"j+	c #D56832",
"k+	c #DF7F3B",
"l+	c #9B4A30",
"m+	c #C65C2F",
"n+	c #DC7838",
"o+	c #D46731",
"p+	c #9D4A2F",
"q+	c #53423F",
"r+	c #7C3E31",
"s+	c #DD7A38",
"t+	c #E48A40",
"u+	c #D97336",
"v+	c #E3873E",
"w+	c #CF6531",
"x+	c #613734",
"y+	c #493B3B",
"z+	c #4B3033",
"A+	c #C35B30",
"B+	c #DA7637",
"C+	c #DC7939",
"D+	c #DA7437",
"E+	c #B3542F",
"F+	c #603734",
"G+	c #C75C2F",
"H+	c #CF602F",
"I+	c #D76D34",
"J+	c #CF5F2F",
"K+	c #AD522F",
"L+	c #4D3737",
"M+	c #433739",
"N+	c #7E6931",
"O+	c #9A512D",
"P+	c #B7552F",
"Q+	c #84562C",
"R+	c #6E5D34",
"S+	c #433935",
"T+	c #CDB837",
"U+	c #694E33",
"V+	c #403437",
"W+	c #3F3437",
"X+	c #876C32",
"Y+	c #AC9B36",
"Z+	c #202121",
"`+	c #2E2929",
" @	c #403534",
".@	c #847D53",
"+@	c #BCAD58",
"@@	c #DACF75",
"#@	c #A19960",
"$@	c #3D3335",
"%@	c #C9C072",
"&@	c #DFD269",
"*@	c #9A9258",
"=@	c #716A4A",
"-@	c #473A39",
";@	c #837C51",
">@	c #8E8756",
",@	c #534A3D",
"'@	c #413537",
")@	c #6F6848",
"!@	c #8C8655",
"~@	c #71694A",
"{@	c #4A3C39",
"]@	c #614C48",
"^@	c #705751",
"/@	c #6A524C",
"(@	c #6C544E",
"_@	c #755A53",
"      .   + @ @ +   .   # $ % & * = - ; ; > , + > @ +   .       ",
". ' ) ! , ~ { { ~ , ! , ] ^ / ( _ : < ; ; [ ~ ~ [ { ~ , ! } | 1 ",
"  ) 2 3 @ { 4 4 { @ 3 @ 5 6 7 8 9 0 ; ; ; 4 { { 4 4 { > 3 a b c ",
", ~ { ; ; ; ; ; ; d e d f g h i j k l m ; ; ; ; ; ; ; n ; o p q ",
"@ { 4 ; ; ; ; ; n r s t u v w x y z A B C ; ; ; ; ; ; ; ; D E F ",
"; ; ; ; ; ; ; ; G H I J K L M N O P Q I R S ; ; ; ; ; n ; o p q ",
"; ; ; ; ; ; ; ; T U V W X Y N N Z `  ...+.S ; ; ; ; ; n ; o p q ",
"> [ 4 ; ; ; ; ; - @.#.$.%.&.*.=.-.;.>.,.'.).; ; ; ; ; n ; o p q ",
", ~ { ; ; ; ; ; - !.~.{.].^./.(._.:.<.[.}.).; ; ; ; ; n ; o p q ",
"+ ~ { ; |.1.; ; 2.3.4.5.6.7.8.9.0.a.b.c.d.S ; d 1.d ; n ; e.p q ",
"> [ 4 ; f.g.h.; 2.i.j.j.k.l.m.n.o.p.j.q.r.S n s.t.S ; n ; o p q ",
"@ { 4 ; f.u.v.w.2.i.j.j.x.y.z.A.B.j.j.q.r.|.C.D.E.S ; n ; F.G.p ",
"+ ~ { ; |.H.I.J.K.L.M.j.j.p.N.p.j.j.x.O.P.Q.R.S.T.d ; ; ; U.V.o ",
"  , @ ; ; W.X.Y.Z.`. +.+j.j.j.j.j.++@+#+$+%+q.&+*+; ; ; ; a V.D ",
". ! 3 ; ; S =+-+j.;+>+,+'+q.Y.p.)+!+~+{+]+j.^+/+; ; ; n ; (+G.p ",
". ! 3 ; ; 4 _+:+j.j.)+'+'+<+[+}+|+'+1+q.j.p.2+3+; ; ; n ; 4+G.p ",
"  , @ ; ; ; 5+i.j.j.j.j.j.6+7+7+]+j.j.j.j.q.r.S ; ; ; ; ; 8+V.D ",
", ~ { ; ; ; 9+0+-+j.j.j.j.j.j.j.j.j.j.j.j.a+b+).; ; ; ; ; U.V.o ",
"@ { 4 ; ; ; n c+d+e+j.j.j.j.j.j.j.j.j.Y.f+g+h+; ; ; ; n ; F.G.p ",
"; ; ; ; ; ; 5+i+j+q.j.j.j.j.j.j.j.j.j.j.k+}+l+S ; ; ; n ; e.p q ",
"; ; ; ; ; ; 5+m+n+j.j.j.j.j.j.j.j.j.j.j.j.o+p+S ; ; ; n ; e.p q ",
"@ { 4 ; ; ; 5+m+n+j.]+Y.j.j.j.j.j.j.j.p.]+o+p+S ; ; ; n ; q+G.p ",
", ~ { ; ; ; |.r+s+j.]+t+j.j.j.j.B.u+k+p.v+w+x+d ; ; ; ; ; y+V.o ",
"  , @ ; ; ; ; z+A+)+7+B+j.j.j.Y.)+u+C+7+D+E+*+; ; ; ; ; ; ; n n ",
". ! 3 ; ; ; ; d F+G+H+I+'+'+1+'+1+'+d+J+K+L+; ; ; ; ; ; ; ; n n ",
"  , @ ; ; ; ; ; M+N+O+P+~+P+~+P+~+P+~+Q+R+d ; ; ; ; ; ; ; U.V.o ",
"  , @ ; ; ; ; d S+T+U+V+W+V+W+V+W+V+W+X+Y+|.d ; ; ; ; n ; V.G.p ",
"Z+`+ @n ; n l .@+@@@#@S ; ; n n n n $@%@&@*@=@d n n n -@n o p q ",
"  , @ ; ; ; l ;@>@,@l ; ; ; ; ; ; ; ; '@)@!@~@d ; ; ; n ; e.p q ",
"1 {@q+e.e.V.U.; ; a V.F.a U.F.o e.o o e.o F.U.U.F.o e.o o ]@^@q ",
"c /@(@p p G.V.n n V.G.G.V.V.G.p p p p p p G.V.V.G.p p p p ^@_@q ",
"q q q q q p o n n D p p D o p q q q q q q p o o p q q q q q q q "};
