/* XPM */
static char * vilain_3_xpm[] = {
"32 32 303 2",
"  	c #222222",
". 	c #212222",
"+ 	c #302A2A",
"@ 	c #413635",
"# 	c #202123",
"$ 	c #386B4E",
"% 	c #27242D",
"& 	c #483B3A",
"* 	c #403535",
"= 	c #2F2A2A",
"- 	c #252424",
"; 	c #2C2828",
"> 	c #2F2A29",
", 	c #372F2F",
"' 	c #433736",
") 	c #2E292A",
"! 	c #407F59",
"~ 	c #45B677",
"{ 	c #2A2A2E",
"] 	c #413535",
"^ 	c #303C36",
"/ 	c #312A33",
"( 	c #423736",
"_ 	c #362E2D",
": 	c #403532",
"< 	c #453835",
"[ 	c #3A3131",
"} 	c #403635",
"| 	c #463A39",
"1 	c #3F3535",
"2 	c #408C61",
"3 	c #38B174",
"4 	c #224044",
"5 	c #235E56",
"6 	c #43B476",
"7 	c #395344",
"8 	c #4D3E3C",
"9 	c #604B46",
"0 	c #69514C",
"a 	c #463939",
"b 	c #2C7853",
"c 	c #259B7A",
"d 	c #1D7F77",
"e 	c #1D8D82",
"f 	c #227867",
"g 	c #443838",
"h 	c #473B3A",
"i 	c #574542",
"j 	c #6D554F",
"k 	c #775C55",
"l 	c #413637",
"m 	c #433738",
"n 	c #473A3A",
"o 	c #6A6445",
"p 	c #8C8652",
"q 	c #8D8A59",
"r 	c #457E70",
"s 	c #26625E",
"t 	c #453839",
"u 	c #3F3436",
"v 	c #473A39",
"w 	c #584643",
"x 	c #6E554F",
"y 	c #785C55",
"z 	c #484041",
"A 	c #CFCFD0",
"B 	c #B3B3B5",
"C 	c #4F493B",
"D 	c #E8E2B4",
"E 	c #FDFAE3",
"F 	c #F7EC8C",
"G 	c #DDD27A",
"H 	c #988534",
"I 	c #605E61",
"J 	c #DDDCDD",
"K 	c #6D6B6D",
"L 	c #ABABAD",
"M 	c #FFFFFF",
"N 	c #FDFDFD",
"O 	c #87857B",
"P 	c #F9F2BA",
"Q 	c #FCF9E2",
"R 	c #F5E985",
"S 	c #AE9A33",
"T 	c #EAEAEA",
"U 	c #F1F1F1",
"V 	c #3C3539",
"W 	c #6A656A",
"X 	c #EFEFEF",
"Y 	c #DAD9DA",
"Z 	c #6A6659",
"` 	c #F9F2B8",
" .	c #F8EE9B",
"..	c #F7EC8A",
"+.	c #F4E883",
"@.	c #AE9933",
"#.	c #979294",
"$.	c #F8F8F8",
"%.	c #A5A1A2",
"&.	c #352D34",
"*.	c #463A3A",
"=.	c #7B3E32",
"-.	c #8A5248",
";.	c #985244",
">.	c #6D563E",
",.	c #F6EB8D",
"'.	c #F6EB88",
").	c #F2E57A",
"!.	c #E4CF47",
"~.	c #B19F32",
"{.	c #A44D2F",
"].	c #87564E",
"^.	c #A74F2F",
"/.	c #3F3136",
"(.	c #7C3F32",
"_.	c #874030",
":.	c #984730",
"<.	c #6D553E",
"[.	c #F5E987",
"}.	c #E5D55F",
"|.	c #887530",
"1.	c #CDB832",
"2.	c #9E6A30",
"3.	c #B25130",
"4.	c #833F30",
"5.	c #AC502F",
"6.	c #574642",
"7.	c #403537",
"8.	c #8E4330",
"9.	c #D66F34",
"0.	c #DD7D3A",
"a.	c #9B6637",
"b.	c #C0AB3A",
"c.	c #8F6D2B",
"d.	c #D1A222",
"e.	c #79582E",
"f.	c #DA7837",
"g.	c #E48A40",
"h.	c #D77235",
"i.	c #CC6130",
"j.	c #392D35",
"k.	c #443839",
"l.	c #845337",
"m.	c #674335",
"n.	c #8B3E30",
"o.	c #E3883F",
"p.	c #E68D41",
"q.	c #E28940",
"r.	c #8E3E30",
"s.	c #CBAF2E",
"t.	c #C0AC32",
"u.	c #B35F31",
"v.	c #E3883E",
"w.	c #CF6732",
"x.	c #473635",
"y.	c #B6703C",
"z.	c #3A2E33",
"A.	c #534340",
"B.	c #654F4A",
"C.	c #975937",
"D.	c #DC853F",
"E.	c #704836",
"F.	c #E1843C",
"G.	c #904E31",
"H.	c #A95832",
"I.	c #E4883F",
"J.	c #4C3A37",
"K.	c #B6703E",
"L.	c #DA823D",
"M.	c #392E33",
"N.	c #4C3E3C",
"O.	c #544340",
"P.	c #5A3435",
"Q.	c #CD6A35",
"R.	c #DA8540",
"S.	c #664234",
"T.	c #603634",
"U.	c #CC6C35",
"V.	c #E58B40",
"W.	c #E3863E",
"X.	c #8D4732",
"Y.	c #413234",
"Z.	c #C0773D",
"`.	c #E2843C",
" +	c #844232",
".+	c #433739",
"++	c #3F3437",
"@+	c #AB5231",
"#+	c #E3873E",
"$+	c #DD8740",
"%+	c #AA5934",
"&+	c #944630",
"*+	c #BD6836",
"=+	c #E18A40",
"-+	c #CD7C3D",
";+	c #9F4730",
">+	c #C05B30",
",+	c #B7703C",
"'+	c #E58C41",
")+	c #D07337",
"!+	c #523133",
"~+	c #4B2C32",
"{+	c #DC7837",
"]+	c #E4893F",
"^+	c #D36832",
"/+	c #B6552F",
"(+	c #D26A34",
"_+	c #DE7C3A",
":+	c #E58C40",
"<+	c #D87035",
"[+	c #BE5A30",
"}+	c #C35B30",
"|+	c #DF803C",
"1+	c #A14830",
"2+	c #483034",
"3+	c #C96C35",
"4+	c #D86F35",
"5+	c #D66A33",
"6+	c #D36330",
"7+	c #D36430",
"8+	c #D36530",
"9+	c #DE7D3A",
"0+	c #DF823D",
"a+	c #8C4131",
"b+	c #453939",
"c+	c #8A3E30",
"d+	c #E1833D",
"e+	c #E1843D",
"f+	c #793932",
"g+	c #DA7E3B",
"h+	c #B95B32",
"i+	c #3E3236",
"j+	c #413236",
"k+	c #C25B30",
"l+	c #DA7537",
"m+	c #D66A32",
"n+	c #653431",
"o+	c #8D4531",
"p+	c #D36230",
"q+	c #DD7C3A",
"r+	c #D56A32",
"s+	c #C65C2F",
"t+	c #3A2D35",
"u+	c #8E4530",
"v+	c #D46531",
"w+	c #E68C41",
"x+	c #CA5D2F",
"y+	c #E3873F",
"z+	c #E2863E",
"A+	c #5D3735",
"B+	c #C85F31",
"C+	c #E0823C",
"D+	c #D97236",
"E+	c #DF7E3A",
"F+	c #854131",
"G+	c #AB5130",
"H+	c #D87135",
"I+	c #DC7838",
"J+	c #E0813C",
"K+	c #E1823C",
"L+	c #C65D30",
"M+	c #533333",
"N+	c #493638",
"O+	c #A44E30",
"P+	c #CF5F2F",
"Q+	c #D46732",
"R+	c #D76E34",
"S+	c #D0602F",
"T+	c #C95D2F",
"U+	c #663833",
"V+	c #665835",
"W+	c #845B2C",
"X+	c #B5552F",
"Y+	c #B7552F",
"Z+	c #A1522D",
"`+	c #806B31",
" @	c #423738",
".@	c #202121",
"+@	c #2E2929",
"@@	c #403534",
"#@	c #9D8D35",
"$@	c #927832",
"%@	c #3D3337",
"&@	c #403437",
"*@	c #614834",
"=@	c #CEB837",
"-@	c #463D34",
";@	c #6A6348",
">@	c #968E58",
",@	c #DFD165",
"'@	c #CCC374",
")@	c #423936",
"!@	c #928B59",
"~@	c #D8CD76",
"{@	c #C5B659",
"]@	c #888256",
"^@	c #4A3C39",
"/@	c #53423F",
"(@	c #614C48",
"_@	c #705751",
":@	c #6A524C",
"<@	c #6C544E",
"[@	c #755A53",
"      .   + @ @ +   .     # $ % @ & & & & * = + * @ +   .       ",
". - ; > = , ' ' , = > = ) ! ~ { ] ^ / & & ( , , ( ' , = > _ : < ",
"  ; [ } @ ' | | ' @ } @ 1 2 3 4 5 6 7 & & | ' ' | | ' * } 8 9 0 ",
"= , ' & & & & & & & & & a b c d e f g & & & & & & & & h & i j k ",
"@ ' | & & & & & & & l m n o p q r s t u v & & & & & & & & w x y ",
"& & & & & & & & & z A B C D E F G H I J K n & & & & & h & i j k ",
"& & & & & & & & a L M N O P Q F R S T M U V & & & & & h & i j k ",
"* ( | & & & & & a W X Y Z `  ...+.@.#.$.%.&.& & & & & h & i j k ",
"= , ' & & & & & *.=.-.;.>.,.'.).!.~.{.].^./.& & & & & h & i j k ",
"+ , ' & & & & & *.(._.:.<.[.}.|.1.2.3.4.5./.& & & & & h & 6.j k ",
"* ( | & h 7.| & a 8.9.0.a.b.c.d.e.f.g.h.i.j.& & l k.& h & i j k ",
"@ ' | & a l.m.n a n.o.p.q.r.s.t.u.v.p.p.w.j.& x.y.z.& h & A.B.j ",
"+ , ' & a C.D.E.k.n.o.p.p.F.G.H.I.p.p.p.w.j.J.K.L.M.& & & N.O.i ",
"  = @ & h P.Q.R.S.T.U.V.p.p.W.I.p.p.p.F.X.Y.Z.`. +.+& & & 8 O.w ",
". > } & & ++@+#+$+%+&+*+=+p.p.p.p.p.-+;+>+,+'+)+!+& & h & A.B.j ",
". > } & & & ~+{+p.]+^+/+(+_+:+V.g.<+[+}+|+p.g.1+k.& & h & A.B.j ",
"  = @ & & & 2+3+V.p.g.<+4+5+6+7+8+4+4+9+p.p.0+a+b+& & & & 8 O.w ",
"= , ' & & & a c+o.p.p.p.p.]+d+d+e+p.p.p.p.p.w.j.& & & & & N.O.i ",
"@ ' | & & & *.f+g+p.p.p.p.p.p.p.p.p.p.p.p.]+h+i+& & & h & A.B.j ",
"& & & & & & & j+k+<+]+p.p.p.p.p.p.p.p.p.l+m+n+n & & & h & 6.j k ",
"& & & & & & a o+p+q+p.p.p.p.p.p.p.p.p.p.g.r+s+t+& & & h & 6.j k ",
"@ ' | & & & a u+v+w+p.p.p.p.p.p.p.p.p.p.p._+x+j.& & & h & O.B.j ",
"= , ' & & & a u+v+w+w+y+p.p.p.p.p.p.p.p.z+_+x+j.& & & & & N.O.i ",
"  = @ & & & h A+B+V.w+#+p.p.p.p.:+C+D+p.z+E+F+.+& & & & & & h h ",
". > } & & & & ++G+H+d+_+]+p.p.p.I+J+H+K+J+L+M+& & & & & & & h h ",
"  = @ & & & & & N+O+P+Q+4+4+4+4+4+4+R+S+T+U+n & & & & & & N.O.i ",
"  = @ & & & & & h V+W+X+Y+Y+Y+Y+Y+Y+Y+Z+`+ @& & & & & h & O.B.j ",
".@+@@@h & h & & t #@$@%@&@++++++++++++*@=@-@n & h h h v h i j k ",
"  = @ & & & h ;@>@,@'@)@& & & & & & | !@~@{@]@m & & & h & 6.j k ",
"< ^@/@6.6.O.N.& & 8 O.A.8 N.A.i 6.i i 6.i A.N.N.A.i 6.i i (@_@k ",
"0 :@<@j j B.O.h h O.B.B.O.O.B.j j j j j j B.O.O.B.j j j j _@[@k ",
"k k k k k j i h h w j j w i j k k k k k k j i i j k k k k k k k "};
