/* XPM */
static char * vilain_5_xpm[] = {
"32 32 280 2",
"  	c #222222",
". 	c #212222",
"+ 	c #302A2A",
"@ 	c #413635",
"# 	c #2F2A2A",
"$ 	c #483B3A",
"% 	c #403535",
"& 	c #252424",
"* 	c #2C2828",
"= 	c #2F2A29",
"- 	c #372F2F",
"; 	c #433736",
"> 	c #423736",
", 	c #362E2D",
"' 	c #403532",
") 	c #453835",
"! 	c #3A3131",
"~ 	c #403635",
"{ 	c #463A39",
"] 	c #4D3E3C",
"^ 	c #604B46",
"/ 	c #69514C",
"( 	c #473B3A",
"_ 	c #574542",
": 	c #6D554F",
"< 	c #775C55",
"[ 	c #584643",
"} 	c #6E554F",
"| 	c #785C55",
"1 	c #443838",
"2 	c #413537",
"3 	c #453939",
"4 	c #488F61",
"5 	c #339263",
"6 	c #3D3235",
"7 	c #473A3A",
"8 	c #325444",
"9 	c #47C27E",
"0 	c #235144",
"a 	c #255F4F",
"b 	c #2D6A4E",
"c 	c #345C48",
"d 	c #2B4A3E",
"e 	c #2AA378",
"f 	c #1E7E75",
"g 	c #20937F",
"h 	c #31A972",
"i 	c #3E5F48",
"j 	c #3F3436",
"k 	c #52493C",
"l 	c #8D8954",
"m 	c #8D8858",
"n 	c #678367",
"o 	c #21706D",
"p 	c #3E3335",
"q 	c #413536",
"r 	c #574642",
"s 	c #686567",
"t 	c #DDDDDE",
"u 	c #D5D4D5",
"v 	c #403B41",
"w 	c #D5CC88",
"x 	c #FDFBE8",
"y 	c #F8ED96",
"z 	c #E7DC81",
"A 	c #BAA83D",
"B 	c #433F44",
"C 	c #D6D6D7",
"D 	c #646263",
"E 	c #382E33",
"F 	c #D5D5D6",
"G 	c #FFFFFF",
"H 	c #FAFAFB",
"I 	c #9C9C9E",
"J 	c #EDE493",
"K 	c #FDFAE6",
"L 	c #F7EC8A",
"M 	c #D6C242",
"N 	c #A3A3A5",
"O 	c #FBFBFB",
"P 	c #D2D2D3",
"Q 	c #393034",
"R 	c #534340",
"S 	c #654F4A",
"T 	c #372E35",
"U 	c #AE5F4A",
"V 	c #9A9495",
"W 	c #988A8A",
"X 	c #843F30",
"Y 	c #FAF2BA",
"Z 	c #F6EB88",
"` 	c #894130",
" .	c #988C8C",
"..	c #AC5B45",
"+.	c #392F36",
"@.	c #4C3E3C",
"#.	c #544340",
"$.	c #3C3237",
"%.	c #B4542F",
"&.	c #CD5F2F",
"*.	c #CB5E2F",
"=.	c #ECE184",
"-.	c #F7EC8E",
";.	c #F3E67C",
">.	c #EAD85E",
",.	c #D4BF33",
"'.	c #8A4130",
").	c #B25330",
"!.	c #3D3337",
"~.	c #AC502F",
"{.	c #823E30",
"].	c #833F30",
"^.	c #EBE082",
"/.	c #F0E272",
"(.	c #917F37",
"_.	c #BBA632",
":.	c #967A31",
"<.	c #B45330",
"[.	c #AA5030",
"}.	c #C95F30",
"|.	c #D67135",
"1.	c #D97536",
"2.	c #BC733B",
"3.	c #BEA739",
"4.	c #A28632",
"5.	c #CD9D22",
"6.	c #9B792A",
"7.	c #CA6432",
"8.	c #E58B40",
"9.	c #D97436",
"0.	c #C65D30",
"a.	c #382F36",
"b.	c #423738",
"c.	c #884432",
"d.	c #E0823B",
"e.	c #E68D41",
"f.	c #B15632",
"g.	c #A58B2E",
"h.	c #D5BE32",
"i.	c #9F6331",
"j.	c #DE813C",
"k.	c #DF813B",
"l.	c #834231",
"m.	c #433738",
"n.	c #7D5037",
"o.	c #865438",
"p.	c #C25C30",
"q.	c #9B4530",
"r.	c #CC7B3D",
"s.	c #E4893F",
"t.	c #AE5A32",
"u.	c #8C4C31",
"v.	c #E0833B",
"w.	c #CA7A3C",
"x.	c #994330",
"y.	c #C25D30",
"z.	c #865437",
"A.	c #7B4F37",
"B.	c #322B33",
"C.	c #493332",
"D.	c #5D3D33",
"E.	c #C87B3E",
"F.	c #E28B40",
"G.	c #E0813C",
"H.	c #C45C30",
"I.	c #BC5930",
"J.	c #D87035",
"K.	c #E3873E",
"L.	c #E2853D",
"M.	c #D86F35",
"N.	c #BB5830",
"O.	c #C55D30",
"P.	c #E0823C",
"Q.	c #E18A40",
"R.	c #C77A3E",
"S.	c #5A3B33",
"T.	c #483232",
"U.	c #533935",
"V.	c #C1773D",
"W.	c #DB813C",
"X.	c #DF7E3B",
"Y.	c #D46531",
"Z.	c #D36430",
"`.	c #D36330",
" +	c #DF803B",
".+	c #E4883F",
"++	c #DA803C",
"@+	c #4F3734",
"#+	c #703731",
"$+	c #AE5633",
"%+	c #E1843D",
"&+	c #E1833D",
"*+	c #A95433",
"=+	c #6F3631",
"-+	c #463A3A",
";+	c #453336",
">+	c #B35731",
",+	c #AF5431",
"'+	c #453437",
")+	c #5F3131",
"!+	c #D56932",
"~+	c #DA7437",
"{+	c #DA7436",
"]+	c #5A3031",
"^+	c #C45B2F",
"/+	c #E3883F",
"(+	c #E58C40",
"_+	c #D56832",
":+	c #C25A2F",
"<+	c #443839",
"[+	c #804031",
"}+	c #DE7C39",
"|+	c #E58A40",
"1+	c #DF7F3B",
"2+	c #D97336",
"3+	c #E2863E",
"4+	c #DD7A38",
"5+	c #7C3E31",
"6+	c #716A4A",
"7+	c #51483C",
"8+	c #74452D",
"9+	c #C55C30",
"0+	c #DF803C",
"a+	c #DB7637",
"b+	c #DB7738",
"c+	c #D87135",
"d+	c #C35B30",
"e+	c #72442D",
"f+	c #544B3D",
"g+	c #6E6649",
"h+	c #B5AC69",
"i+	c #D3CA78",
"j+	c #968635",
"k+	c #D1B32D",
"l+	c #94542A",
"m+	c #C85D2F",
"n+	c #D0602F",
"o+	c #D76D34",
"p+	c #CF602F",
"q+	c #C75C2F",
"r+	c #975829",
"s+	c #D2B32D",
"t+	c #908236",
"u+	c #D6CC7A",
"v+	c #AEA666",
"w+	c #443939",
"x+	c #202121",
"y+	c #2E2929",
"z+	c #403534",
"A+	c #4A4038",
"B+	c #D4CA78",
"C+	c #DED168",
"D+	c #5A5033",
"E+	c #453636",
"F+	c #412C34",
"G+	c #8C4431",
"H+	c #B7552F",
"I+	c #B6552F",
"J+	c #874231",
"K+	c #412D34",
"L+	c #5E5332",
"M+	c #E0D36C",
"N+	c #D0C776",
"O+	c #483F37",
"P+	c #473A39",
"Q+	c #52483C",
"R+	c #70694A",
"S+	c #403437",
"T+	c #3F3437",
"U+	c #736C4B",
"V+	c #4F463B",
"W+	c #4A3C39",
"X+	c #53423F",
"Y+	c #4B3D3C",
"Z+	c #524240",
"`+	c #614C48",
" @	c #705751",
".@	c #6A524C",
"+@	c #6C544E",
"@@	c #755A53",
"      .   + @ @ +   .     .   # @ $ $ $ $ % # + % @ +   .       ",
". & * = # - ; ; - # = # # = # - ; $ $ $ $ > - - > ; - # = , ' ) ",
"  * ! ~ @ ; { { ; @ ~ @ @ ~ @ ; { $ $ $ $ { ; ; { { ; % ~ ] ^ / ",
"# - ; $ $ $ $ $ $ $ $ $ $ $ $ $ $ $ $ $ $ $ $ $ $ $ $ ( $ _ : < ",
"@ ; { $ $ $ $ $ $ $ $ $ $ $ $ $ $ $ $ $ $ $ $ $ $ $ $ $ $ [ } | ",
"$ $ $ $ $ $ $ $ $ $ $ $ $ $ 1 2 $ $ $ $ $ $ $ $ $ $ $ ( $ _ : < ",
"$ $ $ $ $ $ $ $ $ $ $ $ $ 3 4 5 6 7 7 $ $ $ $ $ $ $ $ ( $ _ : < ",
"% > { $ $ $ $ $ $ $ $ $ $ 8 9 0 a b c 3 $ $ $ $ $ $ $ ( $ _ : < ",
"# - ; $ $ $ $ $ $ $ $ $ $ d e f g h i 7 $ $ $ $ $ $ $ ( $ _ : < ",
"+ - ; $ $ $ $ $ $ 7 j 2 $ k l m n o p q j 7 $ $ $ $ $ ( $ r : < ",
"% > { $ $ $ $ $ 7 s t u v w x y z A B C t D ( $ $ $ $ ( $ _ : < ",
"@ ; { $ $ $ $ $ E F G H I J K y L M N O G P Q $ $ $ $ ( $ R S : ",
"+ - ; $ $ $ $ $ T U V W X J Y L Z M `  .V ..+.$ $ $ $ $ $ @.#._ ",
"  # @ $ $ $ $ $ $.%.&.*.X =.-.;.>.,.'.*.&.).!.$ $ $ $ $ $ ] #.[ ",
". = ~ $ $ $ $ $ $.~.{.X ].^./.(._.:.<.X {.[.!.$ $ $ $ ( $ R S : ",
". = ~ $ $ $ $ $ T }.|.1.2.3.4.5.6.7.8.9.|.0.a.$ $ $ $ ( $ R S : ",
"  # @ $ $ $ $ 7 b.c.d.e.e.f.g.h.i.j.e.e.k.l.m.7 $ $ $ $ $ ] #.[ ",
"# - ; $ $ 7 j n.o.p.q.r.e.s.t.u.v.e.e.w.x.y.z.A.j 7 $ $ $ @.#._ ",
"@ ; { B.C.D.E.F.e.G.H.I.J.s.K.L.8.s.M.N.O.P.e.Q.R.S.T.B.$ R S : ",
"$ $ $ U.V.W.s.e.e.e.X.M.J.Y.Z.`.Z.Y.M.M. +e.e.e..+++V.@+$ r : < ",
"$ $ $ 7 j #+$+s.e.e.e.e.e.%+&+&+&+L.e.e.e.e.e.s.*+=+j -+$ r : < ",
"@ ; { $ $ 7 ;+>+s.e.e.e.e.e.e.e.e.e.e.e.e.e..+,+'+7 $ ( $ #.S : ",
"# - ; $ $ $ 7 )+!+~+e.e.e.e.e.e.e.e.e.e.e.{+!+]+( $ $ $ $ @.#._ ",
"  # @ $ $ $ T ^+!+s./+(+e.e.e.e.e.e.e.e.e.G._+:++.$ $ $ $ <+( ( ",
". = ~ $ 7 $ <+[+}+e./+|+e.e.e.e.e.(+1+2+e.3+4+5+<+$ ( $ $ <+( ( ",
"  # @ 7 6+7+<+8+9+0+&+a+e.e.e.e.e.b+1+c+&+ +d+e+<+f+g+7 $ @.#._ ",
"  # @ 3 h+i+j+k+l+m+n+o+J.M.J.M.J.M.M.o+p+q+r+s+t+u+v+w+$ #.S : ",
"x+y+z+( A+B+C+D+E+F+G+H+I+H+I+H+I+H+I+H+J+K+E+L+M+N+O+P+( _ : < ",
"  # @ $ $ Q+R+7 $ $ <+S+T+S+T+S+T+S+T+S+<+$ $ 7 U+V+$ ( $ r : < ",
") W+X+r r #.Y+$ $ ] #.R ] @.R _ r _ _ r _ R @.@.Z+_ r _ _ `+ @< ",
"/ .@+@: : S #.( ( #.S S #.#.S : : : : : : S #.#.S : : : :  @@@< ",
"< < < < < : _ ( ( [ : : [ _ : < < < < < < : _ _ : < < < < < < < "};
