/* XPM */
static char * vilain_7_xpm[] = {
"32 32 275 2",
"  	c #222222",
". 	c #212222",
"+ 	c #302A2A",
"@ 	c #413635",
"# 	c #2F2A2A",
"$ 	c #483B3A",
"% 	c #403535",
"& 	c #252424",
"* 	c #2C2828",
"= 	c #2F2A29",
"- 	c #372F2F",
"; 	c #433736",
"> 	c #423736",
", 	c #362E2D",
"' 	c #403532",
") 	c #453835",
"! 	c #3A3131",
"~ 	c #403635",
"{ 	c #463A39",
"] 	c #4D3E3C",
"^ 	c #604B46",
"/ 	c #69514C",
"( 	c #473B3A",
"_ 	c #574542",
": 	c #6D554F",
"< 	c #775C55",
"[ 	c #584643",
"} 	c #6E554F",
"| 	c #785C55",
"1 	c #574642",
"2 	c #433738",
"3 	c #2F3A36",
"4 	c #343835",
"5 	c #468D63",
"6 	c #3FAB70",
"7 	c #2B8A5D",
"8 	c #3D3235",
"9 	c #534340",
"0 	c #654F4A",
"a 	c #323133",
"b 	c #3EB676",
"c 	c #277354",
"d 	c #217F6E",
"e 	c #2D6649",
"f 	c #363E37",
"g 	c #4C3E3C",
"h 	c #544340",
"i 	c #393636",
"j 	c #2B9066",
"k 	c #1E7770",
"l 	c #1D7E77",
"m 	c #279C7B",
"n 	c #4DA66F",
"o 	c #3D3335",
"p 	c #453236",
"q 	c #3F2A33",
"r 	c #432B33",
"s 	c #463939",
"t 	c #534B3A",
"u 	c #D1C676",
"v 	c #D6CC79",
"w 	c #C5BF74",
"x 	c #405B53",
"y 	c #3D3638",
"z 	c #422E34",
"A 	c #523736",
"B 	c #B6552F",
"C 	c #CF5F2F",
"D 	c #CC5E2F",
"E 	c #753A30",
"F 	c #C7BC6D",
"G 	c #FEFDF6",
"H 	c #FAF3BE",
"I 	c #F7EC8A",
"J 	c #E7D75D",
"K 	c #5C4530",
"L 	c #B7562F",
"M 	c #743C32",
"N 	c #453939",
"O 	c #442A31",
"P 	c #803E30",
"Q 	c #7E3D30",
"R 	c #723830",
"S 	c #CAC071",
"T 	c #F9F2B7",
"U 	c #F8EE9C",
"V 	c #EAD95E",
"W 	c #5B4530",
"X 	c #803D30",
"Y 	c #713830",
"Z 	c #3E3337",
"` 	c #663631",
" .	c #CE5F2F",
"..	c #BD572F",
"+.	c #CABF71",
"@.	c #FBF6D1",
"#.	c #F6EA86",
"$.	c #E7D554",
"%.	c #784C30",
"&.	c #BB572F",
"*.	c #3D3237",
"=.	c #513736",
"-.	c #B7552F",
";.	c #7B3B30",
">.	c #CBC273",
",.	c #ECDD6C",
"'.	c #E5D24F",
").	c #DCC533",
"!.	c #644730",
"~.	c #B8562F",
"{.	c #7A3D31",
"].	c #453839",
"^.	c #673731",
"/.	c #A34C2F",
"(.	c #7C3930",
"_.	c #813B30",
":.	c #BF6433",
"<.	c #C7BC66",
"[.	c #EADC71",
"}.	c #96782F",
"|.	c #8A6B2C",
"1.	c #9D7931",
"2.	c #D47034",
"3.	c #A45232",
"4.	c #833E30",
"5.	c #3D3337",
"6.	c #B55230",
"7.	c #E0813B",
"8.	c #E2843D",
"9.	c #DF8840",
"0.	c #9F7235",
"a.	c #846A2E",
"b.	c #D0AC29",
"c.	c #C6AA2E",
"d.	c #AC4E30",
"e.	c #E58B40",
"f.	c #E4883E",
"g.	c #D56F34",
"h.	c #423737",
"i.	c #935436",
"j.	c #A64E2F",
"k.	c #B65C33",
"l.	c #DB863F",
"m.	c #E68D41",
"n.	c #DD7E3A",
"o.	c #8C5D31",
"p.	c #C1AD32",
"q.	c #995B31",
"r.	c #E1853D",
"s.	c #C7763B",
"t.	c #944230",
"u.	c #BF5D31",
"v.	c #604137",
"w.	c #A4663B",
"x.	c #E38940",
"y.	c #D87035",
"z.	c #B8552F",
"A.	c #D57A3B",
"B.	c #E58C40",
"C.	c #DA7D3B",
"D.	c #B55431",
"E.	c #B95831",
"F.	c #C95F30",
"G.	c #E1843D",
"H.	c #D2813F",
"I.	c #4A3534",
"J.	c #563E38",
"K.	c #CA7C3E",
"L.	c #D97135",
"M.	c #D56932",
"N.	c #E1833D",
"O.	c #E0813C",
"P.	c #DE7D3A",
"Q.	c #D36430",
"R.	c #D76E34",
"S.	c #E48B41",
"T.	c #7E4F36",
"U.	c #473A3A",
"V.	c #764A36",
"W.	c #E68C41",
"X.	c #E3873E",
"Y.	c #DE7E3B",
"Z.	c #D36330",
"`.	c #D56A32",
" +	c #D0803E",
".+	c #423435",
"++	c #3D2F33",
"@+	c #E0803C",
"#+	c #DB7637",
"$+	c #905939",
"%+	c #4A4237",
"&+	c #4B3433",
"*+	c #DD853E",
"=+	c #A75132",
"-+	c #D36B33",
";+	c #E3863E",
">+	c #A1472F",
",+	c #D87837",
"'+	c #965C39",
")+	c #423638",
"!+	c #463C39",
"~+	c #202121",
"{+	c #2E2929",
"]+	c #403534",
"^+	c #3E3734",
"/+	c #9E6238",
"(+	c #C0743B",
"_+	c #D66B33",
":+	c #DC7938",
"<+	c #E2863E",
"[+	c #CD5F2F",
"}+	c #954F33",
"|+	c #C2773C",
"1+	c #877B50",
"2+	c #9A925C",
"3+	c #453A39",
"4+	c #3F3734",
"5+	c #E1D679",
"6+	c #806F34",
"7+	c #503930",
"8+	c #B6562F",
"9+	c #E1823C",
"0+	c #E3873F",
"a+	c #DC7939",
"b+	c #DA7437",
"c+	c #D76D34",
"d+	c #E58A40",
"e+	c #793E2F",
"f+	c #494230",
"g+	c #CEBD53",
"h+	c #9A925D",
"i+	c #4A3C39",
"j+	c #53423F",
"k+	c #554541",
"l+	c #7E784F",
"m+	c #D7C85F",
"n+	c #BDA530",
"o+	c #77472B",
"p+	c #B9562F",
"q+	c #E0823C",
"r+	c #DD7C3A",
"s+	c #7B3E2F",
"t+	c #B18526",
"u+	c #BFAC36",
"v+	c #DBD078",
"w+	c #4E403C",
"x+	c #614C48",
"y+	c #705751",
"z+	c #6A524C",
"A+	c #6C544E",
"B+	c #6E5D4D",
"C+	c #73674D",
"D+	c #4A3B3C",
"E+	c #3F3537",
"F+	c #7C3E31",
"G+	c #CA5D2F",
"H+	c #9F4C31",
"I+	c #6F3C33",
"J+	c #584544",
"K+	c #5E4947",
"L+	c #817854",
"M+	c #68514C",
"N+	c #755A53",
"O+	c #6C544F",
"P+	c #564442",
"Q+	c #50383C",
"R+	c #50363A",
"S+	c #442F36",
"T+	c #472F36",
"U+	c #4D363A",
"V+	c #53393D",
"W+	c #51393D",
"X+	c #634B48",
"Y+	c #564441",
"Z+	c #755B54",
"      .   + @ @ +   .     .   # @ $ $ $ $ % # + % @ +   .       ",
". & * = # - ; ; - # = # # = # - ; $ $ $ $ > - - > ; - # = , ' ) ",
"  * ! ~ @ ; { { ; @ ~ @ @ ~ @ ; { $ $ $ $ { ; ; { { ; % ~ ] ^ / ",
"# - ; $ $ $ $ $ $ $ $ $ $ $ $ $ $ $ $ $ $ $ $ $ $ $ $ ( $ _ : < ",
"@ ; { $ $ $ $ $ $ $ $ $ $ $ $ $ $ $ $ $ $ $ $ $ $ $ $ $ $ [ } | ",
"$ $ $ $ $ $ $ $ $ $ $ $ $ $ $ $ $ $ $ $ $ $ $ $ $ $ $ ( $ _ : < ",
"$ $ $ $ $ $ $ $ $ $ $ $ $ $ $ $ $ $ $ $ $ $ $ $ $ $ $ ( $ _ : < ",
"% > { $ $ $ $ $ $ $ $ $ $ $ $ $ $ $ $ $ $ $ $ $ $ $ $ ( $ _ : < ",
"# - ; $ $ $ $ $ $ $ $ $ $ $ $ $ $ $ $ $ $ $ $ $ $ $ $ ( $ _ : < ",
"+ - ; $ $ $ $ $ $ $ $ $ $ $ $ $ $ $ $ $ $ $ $ $ $ $ $ ( $ 1 : < ",
"% > { $ $ $ $ $ $ $ $ $ $ $ 2 3 4 $ $ $ $ $ $ $ $ $ $ ( $ _ : < ",
"@ ; { $ $ $ $ $ $ $ $ $ $ 2 5 6 7 8 $ $ $ $ $ $ $ $ $ ( $ 9 0 : ",
"+ - ; $ $ $ $ $ $ $ $ $ $ a b c d e f $ $ $ $ $ $ $ $ $ $ g h _ ",
"  # @ $ $ $ $ $ $ $ $ $ $ i j k l m n o $ $ $ $ $ $ $ $ $ ] h [ ",
". = ~ $ $ $ $ $ $ p q r s t u v w x y z q r s $ $ $ $ ( $ 9 0 : ",
". = ~ $ $ $ $ $ A B C D E F G H I J K L C D M N $ $ $ ( $ 9 0 : ",
"  # @ $ $ $ $ ( O P Q P R S T U I V W X Q X Y Z $ $ $ $ $ ] h [ ",
"# - ; $ $ $ $ ( `  .C  ...+.@.I #.$.%. .C  .&.*.$ $ $ $ $ g h _ ",
"@ ; { $ $ $ $ $ =.-.C D ;.>.I ,.'.).!.~.C D {.].$ $ $ ( $ 9 0 : ",
"$ $ $ $ $ $ $ ( ^./.(._.:.<.[.}.|.1.2.3.(.4.B 5.$ $ $ ( $ 1 : < ",
"$ $ $ $ $ $ $ $ =.6.7.8.9.0.a.b.c.d.e.f.8.g.{.].$ $ $ ( $ 1 : < ",
"@ ; { $ $ $ $ h.i.j.k.l.m.n.o.p.q.r.m.m.s.t.u.v.$ $ $ ( $ h 0 : ",
"# - ; $ $ $ ].w.x.y.z.A.B.m.C.D.r.m.m.e.E.F.G.H.I.$ $ $ $ g h _ ",
"  # @ $ $ $ J.K.m.e.L.M.M.N.N.O.N.N.P.Q.R.N.m.S.T.N $ $ $ $ ( ( ",
". = ~ $ $ U.V.m.m.W.m.X.Y.Q.Z.Q.Z.Q.`.N.W.m.B.m. +.+$ $ $ U.( ( ",
"  # @ $ $ ++l.f.@+G.m.m.m.e.B.e.B.e.B.m.m.W.#+8.W.$+{ $ $ g h _ ",
"  # @ U.%+&+*+=+-+m.B.m.m.m.m.m.m.m.m.m.m.B.;+>+,+'+)+!+$ h 0 : ",
"~+{+]+^+v /+(+B _+W.:+m.m.m.m.m.m.m.m.X.<+P.G.[+}+|+1+2+3+_ : < ",
"  # @ 4+5+6+7+8+Q.9+0+G.m.m.m.m.m.W.a+b+c+d+R.[+e+f+g+h+{ 1 : < ",
") i+j+k+l+m+n+o+p+Z.M.q+N.N.N.N.N.N.O.q+r+Q.D s+t+u+v+w+_ x+y+< ",
"/ z+A+: B+C+D+E+=.F+G+ .C  .C  .C  .C  .C H+I+D+J+K+L+M+: y+N+< ",
"< < < < < O+_ ( ( P+Q+R+S+T+U+V+W+V+W+V+W+X+Y+_ : < Z+< < < < < "};
