/* XPM */
static char * evil_2_xpm[] = {
"32 32 48 1",
" 	c #222222",
".	c #212222",
"+	c #302A2A",
"@	c #413635",
"#	c #2F2A2A",
"$	c #483B3A",
"%	c #403535",
"&	c #252424",
"*	c #2C2828",
"=	c #2F2A29",
"-	c #372F2F",
";	c #433736",
">	c #423736",
",	c #362E2D",
"'	c #403532",
")	c #453835",
"!	c #3A3131",
"~	c #403635",
"{	c #463A39",
"]	c #4D3E3C",
"^	c #604B46",
"/	c #69514C",
"(	c #473B3A",
"_	c #574542",
":	c #6D554F",
"<	c #775C55",
"[	c #584643",
"}	c #6E554F",
"|	c #785C55",
"1	c #DA4E38",
"2	c #9F294E",
"3	c #FDF7ED",
"4	c #574642",
"5	c #534340",
"6	c #654F4A",
"7	c #4C3E3C",
"8	c #544340",
"9	c #202121",
"0	c #2E2929",
"a	c #403534",
"b	c #473A39",
"c	c #4A3C39",
"d	c #53423F",
"e	c #614C48",
"f	c #705751",
"g	c #6A524C",
"h	c #6C544E",
"i	c #755A53",
"   . +@@+ .  . #@$$$$%#+%@+ .   ",
".&*=#-;;-#=##=#-;$$$$>-->;-#=,')",
" *!~@;{{;@~@@~@;{$$$${;;{{;%~]^/",
"#-;$$$$$$$$$$$$$$$$$$$$$$$$($_:<",
"@;{$$$$$$$$$$$$$ $$$$$$$$$$$$[}|",
"$$$$$$$$$$$$$$ $ $$$ $$$$$$($_:<",
"$$$$$$$$$$$$$  $ $ $ $$$$$$($_:<",
"%>{$$$$$$$$$$        $$$$$$($_:<",
"#-;$$$$$ $$$$ 1122112 $$$$$($_:<",
"+-;$$$$$  $$$ 1133113 $$$$$($4:<",
"%>{$ $$$$  $$ 1133113 $ $$$($_:<",
"@;{$  $$      1133113 $  $$($56:",
"+-;$          1133113    $$$$78_",
" #@$$    22 2 1133113 22  $$$]8[",
".=~$$$ 2 1112 11  11  112  ($56:",
".=~$$$ 2111112       2111  ($56:",
" #@$    22211122222221111  $$]8[",
"#-;$$  221111111111111111 $$$78_",
"@;{$$$  2  1 1 1 1 1 1    $($56:",
"$$$$$$$       3 3 3 3 3  $$($4:<",
"$$$$$ $$$       3   3   $$$($4:<",
"@;{$$   $               $$$($86:",
"#-;$$$         3     3   $$$$78_",
" #@$         3 3 3 3 3 3  $$$$((",
".=~$$     2 2 1 1 1 1 2   $$$$((",
" #@$$$ 2 1111111111111122 $$$78_",
" #@$$$ 222221111111111111 $($86:",
"90a($(  22211112111111111 (b(_:<",
" #@$   222222222221122111 $($4:<",
")cd44   22222222222222222  __ef<",
"/gh::6       22222       ::::fi<",
"<<<<<:_(([::[ 222 <<<:__:<<<<<<<"};
